<svg width="195" height="195" viewBox="0 0 195 195" fill="none" xmlns="http://www.w3.org/2000/svg">
<path d="M195 97.5C195 151.348 151.348 195 97.5 195C43.6522 195 0 151.348 0 97.5C0 43.6522 43.6522 0 97.5 0C151.348 0 195 43.6522 195 97.5Z" fill="white"/>
<path d="M92.5845 9H102.825L103.234 9.40978H107.331L107.74 9.81955L113.065 10.2293L124.125 13.0978L131.498 15.9662C145.097 22.1661 156.496 30.5665 165.7 41.1674L171.435 48.5433V50.5922L170.206 54.2802L169.387 60.0171L168.567 62.0659L162.628 90.1356L162.014 89.5209V82.5547L161.194 78.0472L157.917 68.6223C154.776 62.3405 150.749 56.9437 145.834 52.4362C141.029 47.9574 135.704 43.9948 129.859 40.5527C123.113 36.6476 115.879 33.23 108.15 30.3083L91.7653 24.9812L78.6578 21.703L65.9598 19.2444L57.5628 18.4248C57.2638 17.6872 57.4686 17.4127 58.1772 17.6053L71.2848 12.688L81.9346 10.2293L87.2596 9.81955L87.6692 9.40978H92.1749L92.5845 9Z" fill="#2E80BE"/>
<path d="M49.5755 22.5226H51.214L60.2254 25.391L64.7311 26.2106L69.2368 27.8497L89.9222 33.1767L89.7174 33.9963H86.8501L79.4771 35.6354L68.4176 40.5527C62.0277 44.4046 56.4979 49.117 51.8284 54.69C43.0914 65.2089 36.128 77.5022 30.9382 91.5698L24.3844 112.059L20.6979 128.04L19.4691 137.874L18.8547 138.489L14.9634 130.908L10.0481 116.566L8.40961 107.961V104.683L8 104.273V90.3404L8.40961 89.9306V86.6525L8.81922 86.2427L9.22883 81.7351L11.2769 73.9494C13.2143 67.8315 15.672 62.2298 18.6499 57.1486C24.8473 46.4125 32.4251 37.0573 41.3833 29.079L49.5755 22.5226Z" fill="#88CDEA"/>
<path d="M91.7653 37.6843H104.873L105.282 38.0941L112.246 38.9137L120.028 41.3723C129.56 45.2242 137.408 50.7562 143.581 57.9682C149.07 64.0862 153.166 71.6014 155.869 80.5059L157.917 91.5698V102.634L155.869 113.698C154.53 118.369 152.756 122.602 150.544 126.401C146.993 132.683 142.557 138.079 137.232 142.587C132.124 147.041 126.119 150.59 119.209 153.241L108.559 156.109L97.0903 156.929L96.6807 156.519H91.3557L90.9461 156.109L86.0308 155.7L74.5617 152.012C66.1769 148.242 59.148 143.12 53.4667 136.645C48.8791 131.4 45.1926 125.253 42.4072 118.205L40.7688 113.288L39.1303 105.092L38.7207 92.7991L39.1303 92.3894V88.9063H51.4186V76.613H42.612L42.4072 75.9983C44.402 70.618 47.0645 65.9056 50.3946 61.8611L50.5994 69.6468H62.8877V57.7633H54.4907L54.2859 56.7389C58.6278 51.9322 63.7479 47.9 69.6463 44.6505L81.525 39.7332L91.7653 37.6843ZM92.7894 55.7145V67.5979H105.078V55.7145H92.7894ZM71.8994 64.7295V76.613L83.7779 76.613V64.7295L71.8994 64.7295ZM80.501 79.4813V92.5941L92.7894 92.5942V79.4814L80.501 79.4813ZM98.5239 85.2183V97.1018L99.3431 97.5116H110.812L110.812 85.2183L98.5239 85.2183ZM58.7916 88.0867L58.792 100.38L71.08 100.38V88.0867H58.7916ZM74.3569 97.5116V109.395H86.6452V97.5116H74.3569ZM63.707 113.083V125.376H75.9953L75.9954 113.083L63.707 113.083ZM75.9953 131.933V144.226H87.874V131.933H75.9953Z" fill="#2F5079"/>
<path d="M176.965 57.3535L181.266 66.1637L184.952 78.8667L186.181 85.8329V89.1111L186.591 89.5209L187 100.585L186.591 100.995V106.322L186.181 106.731L185.362 114.517C184.133 120.119 182.494 125.307 180.446 130.089L172.254 144.841C167.503 151.561 162.108 157.638 156.075 163.076L148.702 169.222L145.834 170.861L107.536 160.822L111.017 160.617L116.752 159.388C121.34 158.105 125.436 156.327 129.04 154.061C135.021 150.344 140.276 145.906 144.81 140.743C153.441 130.662 160.265 118.779 165.291 105.092L171.435 85.4231V83.784L174.302 72.7201V70.6712L176.35 61.2464V58.7877L176.965 57.3535Z" fill="#195C91"/>
<path d="M32.7815 104.478L33.3959 111.239L34.6248 116.156L38.7209 125.581C42.2435 131.617 46.5444 136.879 51.6236 141.357C56.457 145.672 61.782 149.5 67.5984 152.831C73.8532 156.409 80.5421 159.551 87.6694 162.256L97.0904 165.534L113.475 170.042L129.45 173.32L136.618 174.139C136.917 174.877 136.712 175.152 136.003 174.959L124.534 180.696L111.836 184.384L103.235 185.203L102.825 185.613H89.3078L88.8982 185.203L82.7541 184.794L74.1522 182.745C67.5698 180.725 61.5649 178.127 56.1293 174.959C45.59 168.702 36.3738 161.121 28.4806 152.217L22.3364 144.841V143.201L32.7815 104.478Z" fill="#3F3E5C"/>
</svg>
