<svg width="486" height="208" viewBox="0 0 486 208" fill="none" xmlns="http://www.w3.org/2000/svg">
<g clip-path="url(#clip0_379_906)">
<path d="M422.653 100.45C425.1 101.62 426.706 102.613 427.471 103.402C428.236 104.191 428.491 104.929 428.236 105.565C428.006 106.125 427.522 106.914 426.757 107.907C425.993 108.899 425.1 109.942 424.081 111.062C422.016 113.327 419.62 115.949 416.892 118.901C414.19 121.853 410.825 125.467 406.823 129.717C406.695 120.122 406.542 112.996 406.415 108.288C406.287 103.58 406.236 100.221 406.262 98.1847C406.262 97.7012 406.313 97.3195 406.338 97.0395C406.364 96.7596 406.415 96.5051 406.517 96.276C406.695 95.8179 407.231 95.6143 408.123 95.6143C409.015 95.6143 410.621 95.9197 412.915 96.5051L413.808 94.1891L390.381 85.1291L389.463 87.4959C390.279 87.954 390.941 88.3612 391.4 88.7175C391.859 89.0738 392.369 89.5828 392.904 90.219C393.644 91.1352 394.128 91.9496 394.383 92.6113C394.612 93.2984 394.765 94.24 394.842 95.4362C394.944 98.6937 395.097 104.496 395.25 112.818C395.402 121.14 395.555 129.335 395.708 137.377L401.826 139.744C404.503 136.919 407.333 133.941 410.264 130.862C413.196 127.783 415.923 124.932 418.422 122.362C421.226 119.512 423.698 116.941 425.891 114.702C428.057 112.462 429.74 110.757 430.912 109.586C431.779 108.746 432.544 108.136 433.258 107.754C433.971 107.372 434.838 107.067 435.909 106.914C436.699 106.787 437.438 106.736 438.127 106.787C438.815 106.838 439.503 106.965 440.191 107.168L441.135 104.725L423.622 97.9557L422.679 100.399L422.653 100.45Z" fill="white"/>
<path d="M385.486 86.5288C386.022 86.6051 386.684 86.7833 387.475 87.0632L388.392 84.6964L371.542 78.1813L370.625 80.5481C372.638 81.5661 373.862 82.3296 374.321 82.8386C374.78 83.3476 374.882 83.9075 374.652 84.4928C374.448 85.0018 373.607 85.7653 372.078 86.7578C370.548 87.7504 367.005 89.8118 361.397 92.8912C360.861 90.3971 360.377 88.183 359.969 86.2234C359.536 84.2638 359.255 82.7877 359.077 81.7952C358.873 80.6499 358.745 79.8101 358.72 79.3011C358.72 78.7921 358.72 78.3849 358.847 78.105C359.077 77.5451 359.714 77.2906 360.81 77.3924C361.906 77.4942 363.487 77.9014 365.577 78.614L366.495 76.2471L340.06 66.0418L339.142 68.4086C340.034 68.8158 340.774 69.223 341.36 69.6302C341.946 70.0374 342.482 70.4446 342.915 70.8773C343.807 71.6917 344.572 72.7605 345.184 74.0585C345.796 75.3564 346.229 76.6034 346.535 77.7996C347.121 80.1664 347.809 83.0422 348.651 86.427C349.492 89.8118 350.282 93.273 351.072 96.8105C348.217 98.3374 345.49 99.7881 342.915 101.111C340.34 102.46 338.021 103.656 335.981 104.7C334.579 105.438 333.254 106.049 332.005 106.532C330.756 107.016 329.455 107.321 328.053 107.398C327.467 107.423 326.881 107.398 326.32 107.321C325.759 107.245 325.02 107.067 324.128 106.787L323.21 109.154L340.009 115.643L340.927 113.276C340.009 112.818 339.244 112.411 338.607 112.004C337.97 111.597 337.536 111.266 337.332 110.986C337.026 110.655 336.848 110.375 336.823 110.146C336.823 109.917 336.848 109.663 336.95 109.383C337.154 108.848 338.148 108.008 339.933 106.812C341.717 105.641 345.694 103.402 351.863 100.119C352.398 102.511 352.908 104.853 353.418 107.092C353.902 109.357 354.284 111.215 354.539 112.691C354.718 113.633 354.82 114.422 354.871 115.109C354.922 115.796 354.871 116.254 354.769 116.534C354.59 117.017 354.055 117.272 353.214 117.272C352.373 117.272 350.665 116.865 348.09 116.05L347.172 118.417L373.531 128.597L374.448 126.23C373.429 125.772 372.638 125.34 372.078 124.932C371.517 124.525 371.007 124.143 370.599 123.762C369.732 122.947 368.968 121.904 368.381 120.58C367.77 119.257 367.362 118.01 367.107 116.865C366.393 114.065 365.628 111.088 364.863 107.932C364.073 104.776 363.181 100.857 362.136 96.2251C365.016 94.7236 367.438 93.4511 369.426 92.4077C371.415 91.3642 373.48 90.2953 375.621 89.201C377.074 88.4884 378.374 87.8776 379.547 87.3686C380.719 86.8596 382.045 86.5797 383.523 86.5034C384.288 86.5034 384.925 86.5033 385.461 86.5797L385.486 86.5288Z" fill="white"/>
<path d="M482.023 86.3761L437.82 79.352C434.761 78.8685 433.002 75.6364 434.226 72.8114L451.917 31.7612C453.727 27.5365 449.088 23.49 445.137 25.8314L406.771 48.8124C404.12 50.3903 400.679 49.0669 399.812 46.1148L386.939 3.33389C385.613 -1.0689 379.419 -1.19615 377.94 3.15575L363.334 45.3767C362.339 48.278 358.847 49.4741 356.272 47.7944L318.85 23.2864C315.001 20.7669 310.183 24.6353 311.84 28.9362L327.849 70.6482C328.945 73.524 327.059 76.6798 323.974 77.0361L279.542 82.2533C274.979 82.7877 273.781 88.8447 277.809 91.0843L316.939 112.767C319.641 114.269 320.202 117.883 318.086 120.148L287.394 152.672C284.233 156.006 287.215 161.427 291.727 160.562L335.65 152.062C338.683 151.476 341.462 153.894 341.283 156.973L338.734 201.587C338.479 206.168 344.24 208.407 347.146 204.844L375.34 170.131C377.278 167.739 380.974 167.815 382.809 170.284L409.576 206.091C412.329 209.781 418.192 207.771 418.09 203.19L417.351 158.526C417.3 155.446 420.155 153.131 423.163 153.843L466.728 164.099C471.189 165.143 474.401 159.875 471.393 156.414L442.052 122.667C440.038 120.351 440.752 116.738 443.505 115.338L483.476 95.258C487.58 93.1966 486.637 87.0887 482.1 86.3761H482.023ZM440.191 107.219C439.503 107.016 438.815 106.889 438.126 106.838C437.438 106.787 436.699 106.838 435.909 106.965C434.838 107.143 433.946 107.423 433.257 107.805C432.544 108.186 431.779 108.823 430.912 109.637C429.74 110.782 428.057 112.487 425.89 114.752C423.698 116.992 421.225 119.562 418.421 122.413C415.923 124.983 413.221 127.834 410.264 130.913C407.332 133.992 404.503 136.97 401.826 139.795L395.708 137.428C395.555 129.361 395.402 121.191 395.249 112.869C395.096 104.547 394.943 98.7701 394.841 95.4871C394.765 94.291 394.612 93.3493 394.383 92.6622C394.153 91.975 393.669 91.1861 392.904 90.2699C392.369 89.6082 391.859 89.1247 391.4 88.7684C390.941 88.4121 390.278 88.0049 389.463 87.5468L390.38 85.18L413.807 94.2401L412.915 96.556C410.621 95.9706 409.015 95.6652 408.123 95.6652C407.23 95.6652 406.695 95.8688 406.517 96.3269C406.44 96.556 406.364 96.8105 406.338 97.0904C406.313 97.3704 406.287 97.7521 406.262 98.2356C406.211 100.272 406.262 103.631 406.415 108.339C406.542 113.047 406.695 120.173 406.822 129.768C410.825 125.518 414.19 121.904 416.892 118.952C419.594 116 421.99 113.378 424.08 111.113C425.1 110.019 425.992 108.975 426.757 107.957C427.522 106.965 428.032 106.176 428.236 105.616C428.49 104.954 428.236 104.242 427.471 103.453C426.706 102.664 425.1 101.671 422.653 100.501L423.596 98.0575L441.109 104.827L440.166 107.27L440.191 107.219ZM375.621 89.1756C373.479 90.2699 371.414 91.3388 369.426 92.3822C367.438 93.4257 365.016 94.6981 362.135 96.1997C363.155 100.832 364.073 104.751 364.863 107.907C365.653 111.088 366.393 114.065 367.106 116.839C367.361 118.01 367.769 119.257 368.381 120.555C368.967 121.878 369.707 122.922 370.599 123.736C371.007 124.118 371.516 124.5 372.077 124.907C372.638 125.314 373.428 125.747 374.448 126.205L373.53 128.572L347.172 118.392L348.09 116.025C350.664 116.865 352.372 117.272 353.213 117.247C354.055 117.247 354.564 116.992 354.768 116.508C354.87 116.254 354.896 115.77 354.87 115.083C354.819 114.396 354.717 113.607 354.539 112.666C354.284 111.19 353.927 109.332 353.417 107.067C352.933 104.802 352.398 102.486 351.862 100.093C345.693 103.376 341.717 105.591 339.932 106.787C338.148 107.957 337.154 108.823 336.95 109.357C336.848 109.637 336.797 109.892 336.822 110.121C336.822 110.35 337.001 110.63 337.332 110.96C337.561 111.24 337.995 111.571 338.607 111.978C339.244 112.386 340.009 112.818 340.926 113.251L340.009 115.618L323.21 109.128L324.127 106.761C325.019 107.041 325.759 107.219 326.32 107.296C326.88 107.372 327.467 107.398 328.053 107.372C329.455 107.27 330.755 106.99 332.004 106.507C333.253 106.023 334.579 105.412 335.981 104.674C338.02 103.631 340.34 102.435 342.915 101.086C345.489 99.7372 348.191 98.312 351.072 96.785C350.307 93.2475 349.492 89.7864 348.65 86.4016C347.809 83.0168 347.095 80.1409 346.535 77.7741C346.254 76.578 345.795 75.3564 345.183 74.033C344.572 72.7351 343.832 71.6662 342.915 70.8518C342.481 70.4192 341.946 70.012 341.36 69.6048C340.773 69.1976 340.034 68.7904 339.142 68.3832L340.06 66.0164L366.495 76.2217L365.577 78.5885C363.487 77.8759 361.906 77.4687 360.81 77.3669C359.714 77.2651 359.051 77.4942 358.847 78.0795C358.745 78.3595 358.694 78.7667 358.72 79.2757C358.72 79.7846 358.847 80.6245 359.076 81.7697C359.255 82.7623 359.535 84.2383 359.969 86.198C360.402 88.1576 360.861 90.3717 361.396 92.8658C367.004 89.7864 370.548 87.7504 372.077 86.7324C373.607 85.7144 374.448 84.9764 374.652 84.4674C374.881 83.882 374.754 83.3222 374.32 82.8132C373.862 82.3042 372.638 81.5407 370.624 80.5227L371.542 78.1559L388.392 84.671L387.474 87.0378C386.684 86.7579 386.021 86.5797 385.486 86.5034C384.951 86.427 384.288 86.4016 383.549 86.427C382.07 86.5034 380.744 86.8088 379.572 87.2923C378.399 87.8013 377.074 88.4121 375.646 89.1247L375.621 89.1756Z" fill="#EDAF1F"/>
<path d="M114.203 164.608C112.699 164.736 111.373 164.914 110.226 165.092C109.079 165.27 107.626 165.652 105.893 166.186C103.904 166.772 102.604 167.764 101.992 169.138C101.355 170.513 101.049 171.963 101.049 173.465V184.815C101.049 187.106 101.049 188.964 101.126 190.363C101.177 191.763 101.253 193.494 101.33 195.555C96.5117 198.304 89.374 200.9 79.9421 203.317C70.5102 205.76 61.843 206.957 53.915 206.957C46.4969 206.957 39.5122 205.888 33.0118 203.724C26.4859 201.561 20.7758 198.329 15.8559 194.028C10.936 189.753 7.06121 184.459 4.23163 178.122C1.40205 171.785 0 164.532 0 156.363C0 148.753 1.32557 141.704 3.97671 135.239C6.62785 128.775 10.4771 123.202 15.4735 118.519C20.3934 113.887 26.384 110.299 33.4452 107.779C40.5064 105.26 48.3323 103.987 56.9231 103.987C62.7607 103.987 68.1649 104.674 73.1358 106.049C78.1067 107.423 82.2109 108.899 85.4483 110.452L89.9349 106.66H96.2313L96.8941 142.289H90.5212C86.8504 131.575 82.4658 123.634 77.3419 118.443C72.2181 113.251 65.7687 110.655 57.9427 110.655C48.6892 110.655 41.526 114.523 36.4787 122.235C31.4313 129.946 28.9076 140.558 28.9076 154.098C28.9076 168.477 31.3803 179.7 36.3257 187.844C41.2711 195.962 48.2814 200.034 57.3564 200.034C61.6135 200.034 65.3863 199.423 68.6748 198.202C71.9887 196.98 74.5378 195.581 76.3733 193.977V174.177C76.3733 172.523 76.0674 171.149 75.4301 170.004C74.7928 168.884 73.5437 167.917 71.6573 167.077C70.2043 166.441 68.3943 165.906 66.2275 165.499C64.0607 165.092 62.2508 164.787 60.7978 164.608V159.238H114.127V164.608H114.203Z" fill="#3E93CD"/>
<path d="M207.553 131.6H202.047C200.645 127.91 198.223 124.143 194.808 120.351C191.392 116.559 187.976 114.32 184.611 113.633C183.158 113.302 181.144 113.124 178.569 113.047C175.995 112.971 173.853 112.946 172.171 112.946H157.258V150.586H167.837C170.488 150.586 172.91 150.28 175.077 149.695C177.244 149.11 179.232 147.964 181.017 146.259C182.138 145.216 183.26 143.358 184.381 140.686C185.503 138.039 186.242 135.698 186.599 133.738H192.105V174.457H186.599C186.319 172.523 185.58 170.105 184.381 167.204C183.209 164.303 182.087 162.292 181.017 161.173C179.436 159.518 177.55 158.399 175.383 157.762C173.216 157.152 170.692 156.821 167.863 156.821H157.284V184.968C157.284 187.895 157.513 190.236 157.972 191.941C158.431 193.672 159.298 194.97 160.547 195.886C161.745 196.751 163.402 197.337 165.492 197.617C167.582 197.897 170.437 198.024 174.057 198.024C175.74 198.024 177.779 198.024 180.124 197.947C182.495 197.897 184.56 197.769 186.344 197.54C188.358 197.311 190.27 196.955 192.029 196.497C193.788 196.039 195.113 195.377 195.98 194.512C198.3 192.272 200.9 188.836 203.806 184.23C206.712 179.624 208.599 176.163 209.516 173.872H214.793L212.83 204.284H116.522V198.915C117.874 198.813 119.709 198.635 122.029 198.355C124.348 198.075 125.98 197.769 126.949 197.388C128.784 196.649 130.008 195.733 130.645 194.614C131.282 193.494 131.588 192.069 131.588 190.313V121.446C131.588 119.792 131.333 118.443 130.798 117.348C130.263 116.279 128.988 115.287 126.974 114.422C125.725 113.862 123.966 113.378 121.697 112.92C119.429 112.462 117.721 112.157 116.548 112.029V106.66H207.579V131.575L207.553 131.6Z" fill="#3E93CD"/>
<path d="M338.378 112.055C337.027 112.182 335.089 112.437 332.591 112.818C330.093 113.175 327.824 114.091 325.785 115.491C324 116.738 322.726 118.85 321.987 121.853C321.247 124.856 320.865 129.284 320.865 135.087V204.844H307.992L244.033 129.386V175.195C244.033 180.871 244.441 185.197 245.231 188.175C246.021 191.127 247.321 193.29 249.106 194.664C250.406 195.682 252.471 196.573 255.326 197.337C258.181 198.126 260.45 198.635 262.132 198.915V204.284H217.98V198.915C219.867 198.787 222.008 198.456 224.455 197.922C226.902 197.388 228.942 196.573 230.573 195.479C232.46 194.155 233.734 192.145 234.448 189.447C235.162 186.75 235.493 182.27 235.493 175.933V129.717C235.493 127.426 235.111 125.263 234.372 123.227C233.632 121.191 232.46 119.435 230.854 117.959C229.171 116.407 227.234 115.185 225.016 114.269C222.824 113.378 220.326 112.666 217.521 112.182V106.685H256.167L312.3 172.701V135.774C312.3 129.895 311.892 125.543 311.076 122.667C310.26 119.792 308.96 117.679 307.176 116.305C305.774 115.261 303.709 114.345 300.956 113.582C298.203 112.818 295.985 112.309 294.303 112.029V106.66H338.378V112.029V112.055Z" fill="#3E93CD"/>
</g>
<defs>
<clipPath id="clip0_379_906">
<rect width="486" height="208" fill="white"/>
</clipPath>
</defs>
</svg>
