<svg width="1920" height="1080" viewBox="0 0 1920 1080" fill="none" xmlns="http://www.w3.org/2000/svg">
<g clip-path="url(#clip0_1379_10792)">
<path d="M960 180.023C960 146.888 933.128 120.016 899.992 120.016C866.856 120.016 839.984 146.876 839.984 180.023C839.984 213.171 866.844 240.031 899.992 240.031C933.14 240.031 960 213.159 960 180.023ZM856.776 180.023C856.776 156.156 876.125 136.808 899.992 136.808C923.86 136.808 943.208 156.156 943.208 180.023C943.208 203.891 923.86 223.239 899.992 223.239C876.125 223.239 856.776 203.891 856.776 180.023Z" fill="#011936" fill-opacity="0.1"/>
<path d="M885.078 180.023C885.078 188.26 891.755 194.938 899.992 194.938C908.229 194.938 914.906 188.26 914.906 180.023C914.906 171.787 908.229 165.109 899.992 165.109C891.755 165.109 885.078 171.787 885.078 180.023Z" fill="#011936" fill-opacity="0.1"/>
<path d="M933.733 180.023C933.733 161.39 918.625 146.282 899.992 146.282C881.358 146.282 866.25 161.39 866.25 180.023C866.25 198.657 881.358 213.765 899.992 213.765C918.625 213.765 933.733 198.657 933.733 180.023ZM875.7 180.023C875.7 166.6 886.58 155.732 899.992 155.732C913.404 155.732 924.295 166.612 924.295 180.023C924.295 193.435 913.416 204.327 899.992 204.327C886.568 204.327 875.7 193.447 875.7 180.023Z" fill="#3E92CC" fill-opacity="0.1"/>
<path d="M270.328 330.412L270.328 343.121C270.328 352.232 277.731 359.622 286.829 359.622L299.538 359.622L299.538 346.913C299.538 337.803 292.136 330.412 283.037 330.412L270.328 330.412Z" fill="#3E92CC" fill-opacity="0.1"/>
<path d="M270.328 329.503L283.037 329.503C292.148 329.503 299.538 322.101 299.538 313.002L299.538 300.293L286.829 300.293C277.719 300.293 270.328 307.696 270.328 316.794L270.328 329.503Z" fill="#3E92CC" fill-opacity="0.1"/>
<path d="M300.629 346.926L300.629 359.635L313.338 359.635C322.449 359.635 329.839 352.232 329.839 343.133L329.839 330.424L317.13 330.424C308.019 330.424 300.629 337.827 300.629 346.926Z" fill="#011936" fill-opacity="0.1"/>
<path d="M313.339 300.293L300.63 300.293L300.63 313.002C300.63 322.113 308.032 329.504 317.131 329.504L329.84 329.504L329.84 316.794C329.84 307.684 322.437 300.293 313.339 300.293Z" fill="#3E92CC" fill-opacity="0.1"/>
<path d="M330.797 270.15L330.797 282.859C330.797 291.97 338.199 299.36 347.298 299.36L360.007 299.36L360.007 286.651C360.007 277.54 352.605 270.15 343.506 270.15L330.797 270.15Z" fill="#011936" fill-opacity="0.1"/>
<path d="M330.797 329.503L343.506 329.503C352.617 329.503 360.007 322.101 360.007 313.002L360.007 300.293L347.298 300.293C338.187 300.293 330.797 307.696 330.797 316.794L330.797 329.503Z" fill="#3E92CC" fill-opacity="0.1"/>
<path d="M270.328 270.15L270.328 282.859C270.328 291.97 277.731 299.36 286.829 299.36L299.538 299.36L299.538 286.651C299.538 277.54 292.136 270.15 283.037 270.15L270.328 270.15Z" fill="#3E92CC" fill-opacity="0.1"/>
<path d="M270.316 269.241L283.025 269.241C292.136 269.241 299.527 261.839 299.527 252.74L299.527 240.031L286.818 240.031C277.707 240.031 270.316 247.433 270.316 256.532L270.316 269.241Z" fill="#011936" fill-opacity="0.1"/>
<path d="M300.629 286.663L300.629 299.372L313.338 299.372C322.449 299.372 329.839 291.97 329.839 282.871L329.839 270.162L317.13 270.162C308.019 270.162 300.629 277.565 300.629 286.663Z" fill="#3E92CC" fill-opacity="0.1"/>
<path d="M313.326 240.031L300.617 240.031L300.617 252.74C300.617 261.851 308.019 269.241 317.118 269.241L329.827 269.241L329.827 256.532C329.827 247.421 322.425 240.031 313.326 240.031Z" fill="#3E92CC" fill-opacity="0.1"/>
<path d="M240.016 300.741L240.016 313.451C240.016 322.561 247.418 329.952 256.517 329.952L269.226 329.952L269.226 317.243C269.226 308.132 261.823 300.741 252.725 300.741L240.016 300.741Z" fill="#011936" fill-opacity="0.1"/>
<path d="M240.016 299.845L252.725 299.845C261.836 299.845 269.226 292.442 269.226 283.344L269.226 270.635L256.517 270.635C247.406 270.635 240.016 278.037 240.016 287.136L240.016 299.845Z" fill="#3E92CC" fill-opacity="0.1"/>
<path d="M360.007 240.031C360.007 256.605 366.719 271.592 377.586 282.459C388.442 293.315 403.441 300.027 420.015 300.039L360.007 240.031Z" fill="#011936" fill-opacity="0.1"/>
<path d="M360.007 240.031C376.581 240.031 391.568 246.743 402.435 257.611C413.291 268.466 420.002 283.465 420.015 300.039L360.007 240.031Z" fill="#3E92CC" fill-opacity="0.1"/>
<path d="M360.007 360.022C376.581 360.022 391.568 353.31 402.435 342.443C413.291 331.587 420.002 316.589 420.015 300.015L360.007 360.022Z" fill="#011936" fill-opacity="0.1"/>
<path d="M360.007 360.022C360.007 343.448 366.719 328.462 377.586 317.594C388.442 306.739 403.441 300.027 420.015 300.015L360.007 360.022Z" fill="#3E92CC" fill-opacity="0.1"/>
<path d="M480.011 240.031C463.437 240.031 448.45 246.743 437.582 257.611C426.727 268.466 420.015 283.465 420.003 300.039L480.011 240.031Z" fill="#011936" fill-opacity="0.1"/>
<path d="M480.011 240.031C480.011 256.605 473.299 271.592 462.431 282.459C451.576 293.315 436.577 300.027 420.003 300.039L480.011 240.031Z" fill="#3E92CC" fill-opacity="0.1"/>
<path d="M480.011 360.022C480.011 343.448 473.299 328.462 462.431 317.594C451.576 306.739 436.577 300.027 420.003 300.015L479.999 360.01L480.011 360.022Z" fill="#011936" fill-opacity="0.1"/>
<path d="M480.011 360.022C463.437 360.022 448.45 353.31 437.582 342.443C426.715 331.575 420.015 316.589 420.003 300.015L479.999 360.01L480.011 360.022Z" fill="#3E92CC" fill-opacity="0.1"/>
<path d="M600.014 329.928C600.014 346.465 613.438 359.889 629.975 359.889C646.513 359.889 659.937 346.465 659.937 329.928L659.937 299.966L629.975 299.966C613.438 299.966 600.014 313.39 600.014 329.928Z" fill="#3E92CC" fill-opacity="0.1"/>
<path d="M629.975 240.031C613.438 240.031 600.014 253.455 600.014 269.992C600.014 286.53 613.438 299.954 629.975 299.954L659.937 299.954L659.937 269.992C659.949 253.455 646.513 240.031 629.975 240.031Z" fill="#011936" fill-opacity="0.1"/>
<path d="M660.07 299.966L660.07 329.928C660.07 346.465 673.494 359.889 690.032 359.889C706.569 359.889 719.993 346.465 719.993 329.928C719.993 313.39 706.569 299.966 690.032 299.966L660.07 299.966Z" fill="#011936" fill-opacity="0.1"/>
<path d="M660.058 299.954L690.019 299.954C706.557 299.954 719.981 286.53 719.981 269.992C719.981 253.455 706.557 240.031 690.019 240.031C673.482 240.031 660.058 253.455 660.058 269.992L660.058 299.954Z" fill="#3E92CC" fill-opacity="0.1"/>
<path d="M870.32 330.412L870.32 343.121C870.32 352.232 877.723 359.622 886.822 359.622L899.531 359.622L899.531 346.913C899.531 337.803 892.128 330.412 883.029 330.412L870.32 330.412Z" fill="#3E92CC" fill-opacity="0.1"/>
<path d="M870.32 329.503L883.029 329.503C892.14 329.503 899.531 322.101 899.531 313.002L899.531 300.293L886.822 300.293C877.711 300.293 870.32 307.696 870.32 316.794L870.32 329.503Z" fill="#3E92CC" fill-opacity="0.1"/>
<path d="M900.621 346.926L900.621 359.635L913.33 359.635C922.441 359.635 929.831 352.232 929.831 343.133L929.831 330.424L917.122 330.424C908.012 330.424 900.621 337.827 900.621 346.926Z" fill="#011936" fill-opacity="0.1"/>
<path d="M913.331 300.293L900.622 300.293L900.622 313.002C900.622 322.113 908.024 329.504 917.123 329.504L929.832 329.504L929.832 316.794C929.832 307.684 922.43 300.293 913.331 300.293Z" fill="#3E92CC" fill-opacity="0.1"/>
<path d="M930.789 270.15L930.789 282.859C930.789 291.97 938.192 299.36 947.29 299.36L959.999 299.36L959.999 286.651C959.999 277.54 952.597 270.15 943.498 270.15L930.789 270.15Z" fill="#011936" fill-opacity="0.1"/>
<path d="M930.789 329.503L943.498 329.503C952.609 329.503 959.999 322.101 959.999 313.002L959.999 300.293L947.29 300.293C938.179 300.293 930.789 307.696 930.789 316.794L930.789 329.503Z" fill="#3E92CC" fill-opacity="0.1"/>
<path d="M870.32 270.15L870.32 282.859C870.32 291.97 877.723 299.36 886.822 299.36L899.531 299.36L899.531 286.651C899.531 277.54 892.128 270.15 883.029 270.15L870.32 270.15Z" fill="#3E92CC" fill-opacity="0.1"/>
<path d="M870.309 269.241L883.018 269.241C892.128 269.241 899.519 261.839 899.519 252.74L899.519 240.031L886.81 240.031C877.699 240.031 870.309 247.433 870.309 256.532L870.309 269.241Z" fill="#011936" fill-opacity="0.1"/>
<path d="M900.621 286.663L900.621 299.372L913.33 299.372C922.441 299.372 929.831 291.97 929.831 282.871L929.831 270.162L917.122 270.162C908.012 270.162 900.621 277.565 900.621 286.663Z" fill="#3E92CC" fill-opacity="0.1"/>
<path d="M913.318 240.031L900.609 240.031L900.609 252.74C900.609 261.851 908.012 269.241 917.11 269.241L929.819 269.241L929.819 256.532C929.819 247.421 922.417 240.031 913.318 240.031Z" fill="#3E92CC" fill-opacity="0.1"/>
<path d="M840.008 300.741L840.008 313.451C840.008 322.561 847.41 329.952 856.509 329.952L869.218 329.952L869.218 317.243C869.218 308.132 861.816 300.741 852.717 300.741L840.008 300.741Z" fill="#011936" fill-opacity="0.1"/>
<path d="M840.008 299.845L852.717 299.845C861.828 299.845 869.218 292.442 869.218 283.344L869.218 270.635L856.509 270.635C847.398 270.635 840.008 278.037 840.008 287.136L840.008 299.845Z" fill="#3E92CC" fill-opacity="0.1"/>
<path d="M959.999 89.8968C959.999 106.434 946.575 119.858 930.038 119.858C913.5 119.858 900.076 106.434 900.076 89.8968L900.076 59.9353L930.038 59.9353C946.575 59.9353 959.999 73.3592 959.999 89.8968Z" fill="#011936" fill-opacity="0.1"/>
<path d="M930.037 1.30966e-06C946.574 2.03254e-06 959.998 13.4239 959.998 29.9615C959.998 46.499 946.574 59.923 930.037 59.923L900.075 59.9229L900.075 29.9615C900.063 13.4239 913.499 5.86777e-07 930.037 1.30966e-06Z" fill="#3E92CC" fill-opacity="0.1"/>
<path d="M899.941 59.9353L899.941 89.8968C899.941 106.434 886.518 119.858 869.98 119.858C853.442 119.858 840.018 106.434 840.018 89.8968C840.018 73.3592 853.442 59.9353 869.98 59.9353L899.941 59.9353Z" fill="#3E92CC" fill-opacity="0.1"/>
<path d="M899.955 59.9229L869.994 59.9229C853.456 59.9228 840.032 46.4989 840.032 29.9614C840.032 13.4238 853.456 -9.84615e-05 869.994 -9.77386e-05C886.531 -9.70157e-05 899.955 13.4238 899.955 29.9614L899.955 59.9229Z" fill="#011936" fill-opacity="0.1"/>
<path d="M840.02 0C840.02 16.5739 833.308 31.5607 822.44 42.4283C811.585 53.2837 796.586 59.9956 780.012 60.0078L840.02 0Z" fill="#011936" fill-opacity="0.1"/>
<path d="M840.02 0C823.446 -7.24469e-07 808.459 6.71195 797.591 17.5795C786.736 28.4349 780.024 43.4338 780.012 60.0078L840.02 0Z" fill="#3E92CC" fill-opacity="0.1"/>
<path d="M840.019 119.992C823.445 119.992 808.458 113.28 797.59 102.412C786.735 91.5567 780.023 76.5578 780.011 59.9839L840.019 119.992Z" fill="#011936" fill-opacity="0.1"/>
<path d="M840.019 119.992C840.019 103.418 833.307 88.4309 822.439 77.5634C811.584 66.708 796.585 59.996 780.011 59.9839L840.019 119.992Z" fill="#3E92CC" fill-opacity="0.1"/>
<path d="M720.016 -2.62302e-06C736.59 -1.89855e-06 751.576 6.71195 762.444 17.5795C773.299 28.4349 780.011 43.4338 780.023 60.0078L720.016 -2.62302e-06Z" fill="#011936" fill-opacity="0.1"/>
<path d="M720.016 -2.62302e-06C720.016 16.5739 726.728 31.5607 737.595 42.4283C748.451 53.2837 763.45 59.9956 780.023 60.0078L720.016 -2.62302e-06Z" fill="#3E92CC" fill-opacity="0.1"/>
<path d="M720.016 119.992C720.016 103.418 726.728 88.4309 737.595 77.5634C748.451 66.708 763.45 59.996 780.023 59.9839L720.028 119.98L720.016 119.992Z" fill="#011936" fill-opacity="0.1"/>
<path d="M720.016 119.992C736.59 119.992 751.576 113.28 762.444 102.412C773.311 91.5446 780.011 76.5578 780.023 59.9839L720.028 119.98L720.016 119.992Z" fill="#3E92CC" fill-opacity="0.1"/>
<path d="M569.699 90.3811L569.699 103.09C569.699 112.201 562.297 119.591 553.198 119.591L540.489 119.591L540.489 106.882C540.489 97.7715 547.891 90.3811 556.99 90.3811L569.699 90.3811Z" fill="#011936" fill-opacity="0.1"/>
<path d="M569.699 89.4724L556.99 89.4724C547.879 89.4724 540.489 82.0699 540.489 72.9712L540.489 60.2621L553.198 60.2621C562.309 60.2621 569.699 67.6646 569.699 76.7633L569.699 89.4724Z" fill="#011936" fill-opacity="0.1"/>
<path d="M539.398 106.895L539.398 119.604L526.689 119.604C517.579 119.604 510.188 112.201 510.188 103.102L510.188 90.3933L522.897 90.3933C532.008 90.3933 539.398 97.7959 539.398 106.895Z" fill="#3E92CC" fill-opacity="0.1"/>
<path d="M526.689 60.2622L539.398 60.2622L539.398 72.9713C539.398 82.0821 531.995 89.4725 522.897 89.4725L510.187 89.4725L510.187 76.7634C510.187 67.6526 517.59 60.2622 526.689 60.2622Z" fill="#011936" fill-opacity="0.1"/>
<path d="M509.23 30.1191L509.23 42.8282C509.23 51.939 501.828 59.3294 492.729 59.3294L480.02 59.3294L480.02 46.6204C480.02 37.5096 487.423 30.1191 496.521 30.1191L509.23 30.1191Z" fill="#3E92CC" fill-opacity="0.1"/>
<path d="M509.23 89.4724L496.521 89.4724C487.411 89.4724 480.02 82.0699 480.02 72.9712L480.02 60.2621L492.729 60.2621C501.84 60.2621 509.23 67.6646 509.23 76.7633L509.23 89.4724Z" fill="#011936" fill-opacity="0.1"/>
<path d="M569.699 30.1191L569.699 42.8282C569.699 51.939 562.297 59.3294 553.198 59.3294L540.489 59.3294L540.489 46.6204C540.489 37.5096 547.891 30.1191 556.99 30.1191L569.699 30.1191Z" fill="#011936" fill-opacity="0.1"/>
<path d="M569.71 29.2104L557.001 29.2104C547.89 29.2104 540.5 21.8079 540.5 12.7092L540.5 0.000131407L553.209 0.000131962C562.32 0.000132361 569.71 7.40266 569.71 16.5014L569.71 29.2104Z" fill="#3E92CC" fill-opacity="0.1"/>
<path d="M539.398 46.6321L539.398 59.3412L526.689 59.3412C517.579 59.3412 510.188 51.9386 510.188 42.8399L510.188 30.1309L522.897 30.1309C532.008 30.1309 539.398 37.5334 539.398 46.6321Z" fill="#011936" fill-opacity="0.1"/>
<path d="M526.701 7.21291e-07L539.411 1.27682e-06L539.411 12.7091C539.411 21.8199 532.008 29.2103 522.909 29.2103L510.2 29.2103L510.2 16.5012C510.2 7.39042 517.603 3.23575e-07 526.701 7.21291e-07Z" fill="#011936" fill-opacity="0.1"/>
<path d="M600.013 60.7102L600.013 73.4193C600.013 82.5301 592.61 89.9205 583.511 89.9205L570.802 89.9205L570.802 77.2114C570.802 68.1006 578.205 60.7102 587.304 60.7102L600.013 60.7102Z" fill="#3E92CC" fill-opacity="0.1"/>
<path d="M600.013 59.8142L587.304 59.8142C578.193 59.8142 570.802 52.4117 570.802 43.313L570.802 30.6039L583.511 30.6039C592.622 30.6039 600.013 38.0064 600.013 47.1051L600.013 59.8142Z" fill="#011936" fill-opacity="0.1"/>
<path d="M240.026 0C240.026 16.5739 233.314 31.5607 222.447 42.4283C211.591 53.2837 196.593 59.9956 180.019 60.0078L240.026 0Z" fill="#011936" fill-opacity="0.1"/>
<path d="M240.026 0C223.452 -7.24469e-07 208.466 6.71195 197.598 17.5795C186.743 28.4349 180.031 43.4338 180.019 60.0078L240.026 0Z" fill="#3E92CC" fill-opacity="0.1"/>
<path d="M240.026 119.992C223.452 119.992 208.466 113.28 197.598 102.412C186.743 91.5567 180.031 76.5578 180.019 59.9839L240.026 119.992Z" fill="#011936" fill-opacity="0.1"/>
<path d="M240.026 119.992C240.026 103.418 233.314 88.4309 222.447 77.5634C211.591 66.708 196.593 59.996 180.019 59.9839L240.026 119.992Z" fill="#3E92CC" fill-opacity="0.1"/>
<path d="M120.022 -2.62302e-06C136.595 -1.89855e-06 151.582 6.71195 162.45 17.5795C173.305 28.4349 180.017 43.4338 180.029 60.0078L120.022 -2.62302e-06Z" fill="#011936" fill-opacity="0.1"/>
<path d="M120.022 -2.62302e-06C120.022 16.5739 126.733 31.5607 137.601 42.4283C148.456 53.2837 163.455 59.9956 180.029 60.0078L120.022 -2.62302e-06Z" fill="#3E92CC" fill-opacity="0.1"/>
<path d="M120.022 119.992C120.022 103.418 126.733 88.4309 137.601 77.5634C148.456 66.708 163.455 59.996 180.029 59.9839L120.034 119.98L120.022 119.992Z" fill="#011936" fill-opacity="0.1"/>
<path d="M120.022 119.992C136.595 119.992 151.582 113.28 162.45 102.412C173.317 91.5446 180.017 76.5578 180.029 59.9839L120.034 119.98L120.022 119.992Z" fill="#3E92CC" fill-opacity="0.1"/>
<path d="M510.321 450.428L510.321 463.137C510.321 472.248 517.724 479.638 526.823 479.638L539.532 479.638L539.532 466.929C539.532 457.818 532.129 450.428 523.03 450.428L510.321 450.428Z" fill="#011936" fill-opacity="0.1"/>
<path d="M510.321 449.519L523.03 449.519C532.141 449.519 539.532 442.117 539.532 433.018L539.532 420.309L526.823 420.309C517.712 420.309 510.321 427.712 510.321 436.81L510.321 449.519Z" fill="#011936" fill-opacity="0.1"/>
<path d="M540.622 466.941L540.622 479.651L553.331 479.651C562.442 479.651 569.832 472.248 569.832 463.149L569.832 450.44L557.123 450.44C548.012 450.44 540.622 457.843 540.622 466.941Z" fill="#3E92CC" fill-opacity="0.1"/>
<path d="M553.332 420.309L540.623 420.309L540.623 433.018C540.623 442.129 548.025 449.519 557.124 449.519L569.833 449.519L569.833 436.81C569.833 427.699 562.43 420.309 553.332 420.309Z" fill="#011936" fill-opacity="0.1"/>
<path d="M570.79 390.166L570.79 402.875C570.79 411.986 578.193 419.376 587.291 419.376L600 419.376L600 406.667C600 397.556 592.598 390.166 583.499 390.166L570.79 390.166Z" fill="#3E92CC" fill-opacity="0.1"/>
<path d="M570.79 449.519L583.499 449.519C592.61 449.519 600 442.117 600 433.018L600 420.309L587.291 420.309C578.18 420.309 570.79 427.712 570.79 436.81L570.79 449.519Z" fill="#011936" fill-opacity="0.1"/>
<path d="M510.321 390.166L510.321 402.875C510.321 411.986 517.724 419.376 526.823 419.376L539.532 419.376L539.532 406.667C539.532 397.556 532.129 390.166 523.03 390.166L510.321 390.166Z" fill="#011936" fill-opacity="0.1"/>
<path d="M510.311 389.257L523.02 389.257C532.13 389.257 539.521 381.855 539.521 372.756L539.521 360.047L526.812 360.047C517.701 360.047 510.311 367.45 510.311 376.548L510.311 389.257Z" fill="#3E92CC" fill-opacity="0.1"/>
<path d="M540.622 406.679L540.622 419.388L553.331 419.388C562.442 419.388 569.832 411.986 569.832 402.887L569.832 390.178L557.123 390.178C548.012 390.178 540.622 397.581 540.622 406.679Z" fill="#011936" fill-opacity="0.1"/>
<path d="M553.319 360.047L540.61 360.047L540.61 372.756C540.61 381.867 548.013 389.257 557.111 389.257L569.82 389.257L569.82 376.548C569.82 367.437 562.418 360.047 553.319 360.047Z" fill="#011936" fill-opacity="0.1"/>
<path d="M480.008 420.757L480.008 433.466C480.008 442.577 487.41 449.967 496.509 449.967L509.218 449.967L509.218 437.258C509.218 428.148 501.816 420.757 492.717 420.757L480.008 420.757Z" fill="#3E92CC" fill-opacity="0.1"/>
<path d="M480.008 419.861L492.717 419.861C501.828 419.861 509.218 412.459 509.218 403.36L509.218 390.651L496.509 390.651C487.398 390.651 480.008 398.053 480.008 407.152L480.008 419.861Z" fill="#011936" fill-opacity="0.1"/>
<path d="M-120.007 300.039C-120.007 266.903 -93.1348 240.031 -59.9991 240.031C-26.8633 240.031 0.00871222 266.891 0.00871077 300.039C0.00870932 333.187 -26.8512 360.047 -59.9991 360.047C-93.1469 360.047 -120.007 333.174 -120.007 300.039ZM-16.7833 300.039C-16.7833 276.171 -36.1316 256.823 -59.9991 256.823C-83.8665 256.823 -103.215 276.171 -103.215 300.039C-103.215 323.906 -83.8665 343.255 -59.9991 343.255C-36.1316 343.255 -16.7833 323.906 -16.7833 300.039Z" fill="#011936" fill-opacity="0.1"/>
<path d="M30.3203 330.412L30.3203 343.121C30.3203 352.232 37.7228 359.622 46.8215 359.622L59.5306 359.622L59.5306 346.913C59.5306 337.803 52.1281 330.412 43.0294 330.412L30.3203 330.412Z" fill="#3E92CC" fill-opacity="0.1"/>
<path d="M30.3203 329.503L43.0294 329.503C52.1402 329.503 59.5306 322.101 59.5306 313.002L59.5306 300.293L46.8215 300.293C37.7107 300.293 30.3203 307.696 30.3203 316.794L30.3203 329.503Z" fill="#3E92CC" fill-opacity="0.1"/>
<path d="M60.6211 346.926L60.6211 359.635L73.3302 359.635C82.441 359.635 89.8314 352.232 89.8314 343.133L89.8314 330.424L77.1223 330.424C68.0115 330.424 60.6211 337.827 60.6211 346.926Z" fill="#011936" fill-opacity="0.1"/>
<path d="M73.3308 300.293L60.6217 300.293L60.6217 313.002C60.6217 322.113 68.0242 329.504 77.1229 329.504L89.832 329.504L89.832 316.794C89.832 307.684 82.4295 300.293 73.3308 300.293Z" fill="#3E92CC" fill-opacity="0.1"/>
<path d="M90.7891 270.15L90.7891 282.859C90.7891 291.97 98.1916 299.36 107.29 299.36L119.999 299.36L119.999 286.651C119.999 277.54 112.597 270.15 103.498 270.15L90.7891 270.15Z" fill="#011936" fill-opacity="0.1"/>
<path d="M90.7891 329.503L103.498 329.503C112.609 329.503 119.999 322.101 119.999 313.002L119.999 300.293L107.29 300.293C98.1795 300.293 90.7891 307.696 90.7891 316.794L90.7891 329.503Z" fill="#3E92CC" fill-opacity="0.1"/>
<path d="M30.3203 270.15L30.3203 282.859C30.3203 291.97 37.7228 299.36 46.8215 299.36L59.5306 299.36L59.5306 286.651C59.5306 277.54 52.1281 270.15 43.0294 270.15L30.3203 270.15Z" fill="#3E92CC" fill-opacity="0.1"/>
<path d="M30.3086 269.241L43.0177 269.241C52.1285 269.241 59.5189 261.839 59.5189 252.74L59.5189 240.031L46.8098 240.031C37.699 240.031 30.3086 247.433 30.3086 256.532L30.3086 269.241Z" fill="#011936" fill-opacity="0.1"/>
<path d="M60.6211 286.663L60.6211 299.372L73.3302 299.372C82.441 299.372 89.8314 291.97 89.8314 282.871L89.8314 270.162L77.1223 270.162C68.0115 270.162 60.6211 277.565 60.6211 286.663Z" fill="#3E92CC" fill-opacity="0.1"/>
<path d="M73.3181 240.031L60.609 240.031L60.609 252.74C60.609 261.851 68.0115 269.241 77.1102 269.241L89.8193 269.241L89.8193 256.532C89.8193 247.421 82.4168 240.031 73.3181 240.031Z" fill="#3E92CC" fill-opacity="0.1"/>
<path d="M0.0078125 300.741L0.00781194 313.451C0.00781155 322.561 7.41034 329.952 16.509 329.952L29.2181 329.952L29.2181 317.243C29.2181 308.132 21.8156 300.741 12.7169 300.741L0.0078125 300.741Z" fill="#011936" fill-opacity="0.1"/>
<path d="M0.0078125 299.845L12.7169 299.845C21.8277 299.845 29.2181 292.442 29.2181 283.344L29.2181 270.635L16.509 270.635C7.39824 270.635 0.00781345 278.037 0.00781306 287.136L0.0078125 299.845Z" fill="#3E92CC" fill-opacity="0.1"/>
<path d="M119.999 89.8968C119.999 106.434 106.575 119.858 90.0376 119.858C73.5 119.858 60.0761 106.434 60.0761 89.8968L60.0761 59.9353L90.0376 59.9353C106.575 59.9353 119.999 73.3592 119.999 89.8968Z" fill="#011936" fill-opacity="0.1"/>
<path d="M90.0366 1.30966e-06C106.574 2.03254e-06 119.998 13.4239 119.998 29.9615C119.998 46.499 106.574 59.923 90.0366 59.923L60.0752 59.9229L60.0752 29.9615C60.0631 13.4239 73.4991 5.86777e-07 90.0366 1.30966e-06Z" fill="#3E92CC" fill-opacity="0.1"/>
<path d="M59.9414 59.9353L59.9414 89.8968C59.9414 106.434 46.5175 119.858 29.9799 119.858C13.4424 119.858 0.0184739 106.434 0.0184746 89.8968C0.0184754 73.3592 13.4424 59.9353 29.9799 59.9353L59.9414 59.9353Z" fill="#3E92CC" fill-opacity="0.1"/>
<path d="M59.9551 59.9229L29.9936 59.9229C13.456 59.9228 0.0321564 46.4989 0.0321571 29.9614C0.0321578 13.4238 13.456 -9.84615e-05 29.9936 -9.77386e-05C46.5312 -9.70157e-05 59.9551 13.4238 59.9551 29.9614L59.9551 59.9229Z" fill="#011936" fill-opacity="0.1"/>
<path d="M0.0195312 0C0.0195305 16.5739 -6.69242 31.5607 -17.56 42.4283C-28.4154 53.2837 -43.4143 59.9956 -59.9882 60.0078L0.0195312 0Z" fill="#011936" fill-opacity="0.1"/>
<path d="M0.0195312 0C-16.5544 -7.24469e-07 -31.5412 6.71195 -42.4087 17.5795C-53.2642 28.4349 -59.9761 43.4338 -59.9882 60.0078L0.0195312 0Z" fill="#3E92CC" fill-opacity="0.1"/>
<path d="M0.0185521 119.992C-16.5554 119.992 -31.5422 113.28 -42.4097 102.412C-53.2651 91.5567 -59.9771 76.5578 -59.9892 59.9839L0.0185521 119.992Z" fill="#011936" fill-opacity="0.1"/>
<path d="M0.0185521 119.992C0.0185528 103.418 -6.6934 88.4309 -17.5609 77.5634C-28.4164 66.708 -43.4153 59.996 -59.9892 59.9839L0.0185521 119.992Z" fill="#3E92CC" fill-opacity="0.1"/>
<path d="M719.993 600.016C719.993 616.59 713.281 631.576 702.414 642.444C691.558 653.299 676.559 660.011 659.985 660.023L719.993 600.016Z" fill="#011936" fill-opacity="0.1"/>
<path d="M719.993 600.016C703.419 600.016 688.432 606.728 677.565 617.595C666.709 628.451 659.997 643.449 659.985 660.023L719.993 600.016Z" fill="#3E92CC" fill-opacity="0.1"/>
<path d="M719.993 720.007C703.419 720.007 688.432 713.295 677.565 702.428C666.709 691.572 659.997 676.573 659.985 659.999L719.993 720.007Z" fill="#011936" fill-opacity="0.1"/>
<path d="M719.993 720.007C719.993 703.433 713.281 688.446 702.414 677.579C691.558 666.723 676.559 660.011 659.985 659.999L719.993 720.007Z" fill="#3E92CC" fill-opacity="0.1"/>
<path d="M599.989 600.016C616.563 600.016 631.55 606.728 642.418 617.595C653.273 628.451 659.985 643.449 659.997 660.023L599.989 600.016Z" fill="#011936" fill-opacity="0.1"/>
<path d="M599.989 600.016C599.989 616.59 606.701 631.576 617.569 642.444C628.424 653.299 643.423 660.011 659.997 660.023L599.989 600.016Z" fill="#3E92CC" fill-opacity="0.1"/>
<path d="M599.989 720.007C599.989 703.433 606.701 688.446 617.569 677.579C628.424 666.723 643.423 660.011 659.997 659.999L600.001 719.995L599.989 720.007Z" fill="#011936" fill-opacity="0.1"/>
<path d="M599.989 720.007C616.563 720.007 631.55 713.295 642.418 702.428C653.285 691.56 659.985 676.573 659.997 659.999L600.001 719.995L599.989 720.007Z" fill="#3E92CC" fill-opacity="0.1"/>
<path d="M479.986 689.912C479.986 706.45 466.562 719.874 450.025 719.874C433.487 719.874 420.063 706.45 420.063 689.912L420.063 659.951L450.025 659.951C466.562 659.951 479.986 673.375 479.986 689.912Z" fill="#3E92CC" fill-opacity="0.1"/>
<path d="M450.025 600.016C466.562 600.016 479.986 613.44 479.986 629.977C479.986 646.515 466.562 659.939 450.025 659.939L420.063 659.939L420.063 629.977C420.051 613.44 433.487 600.016 450.025 600.016Z" fill="#011936" fill-opacity="0.1"/>
<path d="M419.93 659.951L419.93 689.912C419.93 706.45 406.506 719.874 389.968 719.874C373.431 719.874 360.007 706.45 360.007 689.912C360.007 673.375 373.431 659.951 389.968 659.951L419.93 659.951Z" fill="#011936" fill-opacity="0.1"/>
<path d="M419.942 659.938L389.981 659.938C373.443 659.938 360.019 646.515 360.019 629.977C360.019 613.439 373.443 600.016 389.981 600.016C406.518 600.016 419.942 613.439 419.942 629.977L419.942 659.938Z" fill="#3E92CC" fill-opacity="0.1"/>
<path d="M360.007 660.023C360.007 626.888 333.135 600.016 299.999 600.016C266.863 600.016 239.991 626.876 239.991 660.023C239.991 693.171 266.851 720.031 299.999 720.031C333.147 720.031 360.007 693.159 360.007 660.023ZM256.783 660.023C256.783 636.156 276.132 616.808 299.999 616.808C323.866 616.808 343.215 636.156 343.215 660.023C343.215 683.891 323.866 703.239 299.999 703.239C276.132 703.239 256.783 683.891 256.783 660.023Z" fill="#011936" fill-opacity="0.1"/>
<path d="M285.085 660.023C285.085 668.26 291.762 674.938 299.999 674.938C308.236 674.938 314.913 668.26 314.913 660.023C314.913 651.787 308.236 645.109 299.999 645.109C291.762 645.109 285.085 651.787 285.085 660.023Z" fill="#011936" fill-opacity="0.1"/>
<path d="M333.74 660.023C333.74 641.39 318.632 626.282 299.999 626.282C281.365 626.282 266.257 641.39 266.257 660.023C266.257 678.657 281.365 693.765 299.999 693.765C318.632 693.765 333.74 678.657 333.74 660.023ZM275.707 660.023C275.707 646.6 286.587 635.732 299.999 635.732C313.411 635.732 324.302 646.612 324.302 660.023C324.302 673.435 313.423 684.327 299.999 684.327C286.575 684.327 275.707 673.447 275.707 660.023Z" fill="#3E92CC" fill-opacity="0.1"/>
<path d="M120 780.039C120 746.903 146.872 720.031 180.008 720.031C213.144 720.031 240.016 746.891 240.016 780.039C240.016 813.187 213.156 840.047 180.008 840.047C146.86 840.047 120 813.174 120 780.039ZM223.224 780.039C223.224 756.171 203.875 736.823 180.008 736.823C156.14 736.823 136.792 756.171 136.792 780.039C136.792 803.906 156.14 823.255 180.008 823.255C203.875 823.255 223.224 803.906 223.224 780.039Z" fill="#011936" fill-opacity="0.1"/>
<path d="M194.922 780.039C194.922 788.276 188.245 794.953 180.008 794.953C171.771 794.953 165.094 788.276 165.094 780.039C165.094 771.802 171.771 765.125 180.008 765.125C188.245 765.125 194.922 771.802 194.922 780.039Z" fill="#011936" fill-opacity="0.1"/>
<path d="M146.267 780.039C146.267 761.405 161.375 746.297 180.008 746.297C198.642 746.297 213.75 761.405 213.75 780.039C213.75 798.672 198.642 813.78 180.008 813.78C161.375 813.78 146.267 798.672 146.267 780.039ZM204.3 780.039C204.3 766.615 193.42 755.747 180.008 755.747C166.596 755.747 155.705 766.627 155.705 780.039C155.705 793.451 166.584 804.342 180.008 804.342C193.432 804.342 204.3 793.463 204.3 780.039Z" fill="#3E92CC" fill-opacity="0.1"/>
<path d="M510.019 810.012L525.018 795.026L540.017 780.027L510.019 780.027L480.021 780.027L495.02 795.026L510.019 810.012Z" fill="#011936" fill-opacity="0.1"/>
<path d="M510.008 750.041L495.009 765.028L480.01 780.027L510.008 780.027L540.005 780.027L525.006 765.028L510.008 750.041Z" fill="#3E92CC" fill-opacity="0.1"/>
<path d="M570.003 810.012L555.004 795.014L540.018 780.015L540.018 810.012L540.018 840.01L555.004 825.011L570.003 810.012Z" fill="#011936" fill-opacity="0.1"/>
<path d="M510.032 810.024L525.019 825.011L540.018 840.01L540.018 810.024L540.018 780.027L525.019 795.026L510.032 810.024Z" fill="#3E92CC" fill-opacity="0.1"/>
<path d="M510.032 750.041L525.019 765.04L540.018 780.039L540.018 750.041L540.018 720.043L525.019 735.042L510.032 750.041Z" fill="#011936" fill-opacity="0.1"/>
<path d="M570.003 750.029L555.016 735.03L540.018 720.031L540.018 750.029L540.018 780.027L555.016 765.028L570.003 750.029Z" fill="#3E92CC" fill-opacity="0.1"/>
<path d="M570.004 750.029L555.005 765.016L540.006 780.015L570.004 780.015L600.002 780.015L585.003 765.016L570.004 750.029Z" fill="#011936" fill-opacity="0.1"/>
<path d="M570.015 810L585.014 795.014L600.013 780.015L570.015 780.015L540.018 780.015L555.016 795.014L570.015 810Z" fill="#3E92CC" fill-opacity="0.1"/>
<path d="M569.699 570.381L569.699 583.09C569.699 592.201 562.297 599.591 553.198 599.591L540.489 599.591L540.489 586.882C540.489 577.772 547.891 570.381 556.99 570.381L569.699 570.381Z" fill="#011936" fill-opacity="0.1"/>
<path d="M569.699 569.472L556.99 569.472C547.879 569.472 540.489 562.07 540.489 552.971L540.489 540.262L553.198 540.262C562.309 540.262 569.699 547.665 569.699 556.763L569.699 569.472Z" fill="#011936" fill-opacity="0.1"/>
<path d="M539.398 586.895L539.398 599.604L526.689 599.604C517.579 599.604 510.188 592.201 510.188 583.102L510.188 570.393L522.897 570.393C532.008 570.393 539.398 577.796 539.398 586.895Z" fill="#3E92CC" fill-opacity="0.1"/>
<path d="M526.689 540.262L539.398 540.262L539.398 552.971C539.398 562.082 531.995 569.473 522.897 569.473L510.187 569.473L510.187 556.763C510.187 547.653 517.59 540.262 526.689 540.262Z" fill="#011936" fill-opacity="0.1"/>
<path d="M509.23 510.119L509.23 522.828C509.23 531.939 501.828 539.329 492.729 539.329L480.02 539.329L480.02 526.62C480.02 517.51 487.423 510.119 496.521 510.119L509.23 510.119Z" fill="#3E92CC" fill-opacity="0.1"/>
<path d="M509.23 569.472L496.521 569.472C487.411 569.472 480.02 562.07 480.02 552.971L480.02 540.262L492.729 540.262C501.84 540.262 509.23 547.665 509.23 556.763L509.23 569.472Z" fill="#011936" fill-opacity="0.1"/>
<path d="M569.699 510.119L569.699 522.828C569.699 531.939 562.297 539.329 553.198 539.329L540.489 539.329L540.489 526.62C540.489 517.51 547.891 510.119 556.99 510.119L569.699 510.119Z" fill="#011936" fill-opacity="0.1"/>
<path d="M569.71 509.21L557.001 509.21C547.89 509.21 540.5 501.808 540.5 492.709L540.5 480L553.209 480C562.32 480 569.71 487.403 569.71 496.501L569.71 509.21Z" fill="#3E92CC" fill-opacity="0.1"/>
<path d="M539.398 526.632L539.398 539.341L526.689 539.341C517.579 539.341 510.188 531.939 510.188 522.84L510.188 510.131L522.897 510.131C532.008 510.131 539.398 517.533 539.398 526.632Z" fill="#011936" fill-opacity="0.1"/>
<path d="M526.701 480L539.411 480L539.411 492.709C539.411 501.82 532.008 509.21 522.909 509.21L510.2 509.21L510.2 496.501C510.2 487.39 517.603 480 526.701 480Z" fill="#011936" fill-opacity="0.1"/>
<path d="M600.013 540.71L600.013 553.419C600.013 562.53 592.61 569.921 583.511 569.921L570.802 569.921L570.802 557.211C570.802 548.101 578.205 540.71 587.304 540.71L600.013 540.71Z" fill="#3E92CC" fill-opacity="0.1"/>
<path d="M600.013 539.814L587.304 539.814C578.193 539.814 570.802 532.412 570.802 523.313L570.802 510.604L583.511 510.604C592.622 510.604 600.013 518.006 600.013 527.105L600.013 539.814Z" fill="#011936" fill-opacity="0.1"/>
<path d="M240.026 480C240.026 496.574 233.314 511.561 222.447 522.428C211.591 533.284 196.593 539.996 180.019 540.008L240.026 480Z" fill="#011936" fill-opacity="0.1"/>
<path d="M240.026 480C223.452 480 208.466 486.712 197.598 497.579C186.743 508.435 180.031 523.434 180.019 540.008L240.026 480Z" fill="#3E92CC" fill-opacity="0.1"/>
<path d="M240.026 599.992C223.452 599.992 208.466 593.28 197.598 582.412C186.743 571.557 180.031 556.558 180.019 539.984L240.026 599.992Z" fill="#011936" fill-opacity="0.1"/>
<path d="M240.026 599.992C240.026 583.418 233.314 568.431 222.447 557.563C211.591 546.708 196.593 539.996 180.019 539.984L240.026 599.992Z" fill="#3E92CC" fill-opacity="0.1"/>
<path d="M120.022 480C136.595 480 151.582 486.712 162.45 497.58C173.305 508.435 180.017 523.434 180.029 540.008L120.022 480Z" fill="#011936" fill-opacity="0.1"/>
<path d="M120.022 480C120.022 496.574 126.733 511.561 137.601 522.428C148.456 533.284 163.455 539.996 180.029 540.008L120.022 480Z" fill="#3E92CC" fill-opacity="0.1"/>
<path d="M120.022 599.992C120.022 583.418 126.733 568.431 137.601 557.563C148.456 546.708 163.455 539.996 180.029 539.984L120.034 599.98L120.022 599.992Z" fill="#011936" fill-opacity="0.1"/>
<path d="M120.022 599.992C136.595 599.992 151.582 593.28 162.45 582.412C173.317 571.545 180.017 556.558 180.029 539.984L120.034 599.98L120.022 599.992Z" fill="#3E92CC" fill-opacity="0.1"/>
<path d="M240.001 840.046C240.001 856.62 246.713 871.607 257.58 882.474C268.436 893.33 283.435 900.042 300.009 900.054L240.001 840.046Z" fill="#011936" fill-opacity="0.1"/>
<path d="M240.001 840.046C256.575 840.046 271.562 846.758 282.429 857.625C293.285 868.481 299.997 883.48 300.009 900.054L240.001 840.046Z" fill="#3E92CC" fill-opacity="0.1"/>
<path d="M240.002 960.037C256.576 960.037 271.563 953.325 282.43 942.458C293.286 931.602 299.998 916.604 300.01 900.03L240.002 960.037Z" fill="#011936" fill-opacity="0.1"/>
<path d="M240.002 960.037C240.002 943.464 246.714 928.477 257.581 917.609C268.437 906.754 283.436 900.042 300.01 900.03L240.002 960.037Z" fill="#3E92CC" fill-opacity="0.1"/>
<path d="M360.005 840.046C343.431 840.046 328.444 846.758 317.577 857.625C306.721 868.481 300.009 883.48 299.997 900.054L360.005 840.046Z" fill="#011936" fill-opacity="0.1"/>
<path d="M360.005 840.046C360.005 856.62 353.293 871.607 342.425 882.474C331.57 893.33 316.571 900.042 299.997 900.054L360.005 840.046Z" fill="#3E92CC" fill-opacity="0.1"/>
<path d="M360.005 960.037C360.005 943.464 353.293 928.477 342.425 917.609C331.57 906.754 316.571 900.042 299.997 900.03L359.993 960.025L360.005 960.037Z" fill="#011936" fill-opacity="0.1"/>
<path d="M360.005 960.037C343.431 960.037 328.444 953.325 317.577 942.458C306.709 931.59 300.009 916.604 299.997 900.03L359.993 960.025L360.005 960.037Z" fill="#3E92CC" fill-opacity="0.1"/>
<path d="M390.014 930.027L405.013 915.04L420.012 900.041L390.014 900.041L360.017 900.041L375.016 915.04L390.014 930.027Z" fill="#3E92CC" fill-opacity="0.1"/>
<path d="M390.003 870.056L375.004 885.042L360.005 900.041L390.003 900.041L420.001 900.041L405.002 885.042L390.003 870.056Z" fill="#011936" fill-opacity="0.1"/>
<path d="M449.998 930.027L434.999 915.029L420.013 900.03L420.013 930.027L420.013 960.025L434.999 945.026L449.998 930.027Z" fill="#3E92CC" fill-opacity="0.1"/>
<path d="M390.027 930.039L405.014 945.026L420.013 960.025L420.013 930.039L420.013 900.041L405.014 915.04L390.027 930.039Z" fill="#011936" fill-opacity="0.1"/>
<path d="M390.027 870.056L405.014 885.055L420.013 900.054L420.013 870.056L420.013 840.058L405.014 855.057L390.027 870.056Z" fill="#3E92CC" fill-opacity="0.1"/>
<path d="M449.998 870.044L435.012 855.045L420.013 840.046L420.013 870.044L420.013 900.042L435.012 885.043L449.998 870.044Z" fill="#011936" fill-opacity="0.1"/>
<path d="M449.999 870.044L435 885.031L420.001 900.03L449.999 900.03L479.997 900.03L464.998 885.031L449.999 870.044Z" fill="#3E92CC" fill-opacity="0.1"/>
<path d="M450.011 930.015L465.009 915.029L480.008 900.03L450.011 900.03L420.013 900.03L435.012 915.029L450.011 930.015Z" fill="#011936" fill-opacity="0.1"/>
<path d="M510.321 930.427L510.321 943.136C510.321 952.247 517.724 959.637 526.823 959.637L539.532 959.637L539.532 946.928C539.532 937.817 532.129 930.427 523.03 930.427L510.321 930.427Z" fill="#011936" fill-opacity="0.1"/>
<path d="M510.321 929.518L523.03 929.518C532.141 929.518 539.532 922.116 539.532 913.017L539.532 900.308L526.823 900.308C517.712 900.308 510.321 907.71 510.321 916.809L510.321 929.518Z" fill="#011936" fill-opacity="0.1"/>
<path d="M540.622 946.941L540.622 959.65L553.331 959.65C562.442 959.65 569.832 952.247 569.832 943.148L569.832 930.439L557.123 930.439C548.012 930.439 540.622 937.842 540.622 946.941Z" fill="#3E92CC" fill-opacity="0.1"/>
<path d="M553.332 900.308L540.623 900.308L540.623 913.017C540.623 922.128 548.025 929.518 557.124 929.518L569.833 929.518L569.833 916.809C569.833 907.699 562.43 900.308 553.332 900.308Z" fill="#011936" fill-opacity="0.1"/>
<path d="M570.79 870.165L570.79 882.874C570.79 891.985 578.193 899.375 587.291 899.375L600 899.375L600 886.666C600 877.555 592.598 870.165 583.499 870.165L570.79 870.165Z" fill="#3E92CC" fill-opacity="0.1"/>
<path d="M570.79 929.518L583.499 929.518C592.61 929.518 600 922.116 600 913.017L600 900.308L587.291 900.308C578.18 900.308 570.79 907.71 570.79 916.809L570.79 929.518Z" fill="#011936" fill-opacity="0.1"/>
<path d="M510.321 870.165L510.321 882.874C510.321 891.985 517.724 899.375 526.823 899.375L539.532 899.375L539.532 886.666C539.532 877.555 532.129 870.165 523.03 870.165L510.321 870.165Z" fill="#011936" fill-opacity="0.1"/>
<path d="M510.311 869.256L523.02 869.256C532.13 869.256 539.521 861.854 539.521 852.755L539.521 840.046L526.812 840.046C517.701 840.046 510.311 847.449 510.311 856.547L510.311 869.256Z" fill="#3E92CC" fill-opacity="0.1"/>
<path d="M540.622 886.678L540.622 899.387L553.331 899.387C562.442 899.387 569.832 891.985 569.832 882.886L569.832 870.177L557.123 870.177C548.012 870.177 540.622 877.58 540.622 886.678Z" fill="#011936" fill-opacity="0.1"/>
<path d="M553.319 840.046L540.61 840.046L540.61 852.755C540.61 861.866 548.013 869.256 557.111 869.256L569.82 869.256L569.82 856.547C569.82 847.436 562.418 840.046 553.319 840.046Z" fill="#011936" fill-opacity="0.1"/>
<path d="M480.008 900.756L480.008 913.465C480.008 922.576 487.41 929.966 496.509 929.966L509.218 929.966L509.218 917.257C509.218 908.147 501.816 900.756 492.717 900.756L480.008 900.756Z" fill="#3E92CC" fill-opacity="0.1"/>
<path d="M480.008 899.86L492.717 899.86C501.828 899.86 509.218 892.457 509.218 883.359L509.218 870.65L496.509 870.65C487.398 870.65 480.008 878.052 480.008 887.151L480.008 899.86Z" fill="#011936" fill-opacity="0.1"/>
<path d="M720.016 929.943C720.016 946.48 733.44 959.904 749.977 959.904C766.515 959.904 779.939 946.48 779.939 929.943L779.939 899.981L749.977 899.981C733.44 899.981 720.016 913.405 720.016 929.943Z" fill="#011936" fill-opacity="0.1"/>
<path d="M749.977 840.046C733.439 840.046 720.016 853.47 720.016 870.007C720.016 886.545 733.439 899.969 749.977 899.969L779.938 899.969L779.938 870.007C779.951 853.47 766.515 840.046 749.977 840.046Z" fill="#3E92CC" fill-opacity="0.1"/>
<path d="M780.07 899.981L780.07 929.943C780.07 946.48 793.494 959.904 810.032 959.904C826.569 959.904 839.993 946.48 839.993 929.943C839.993 913.405 826.569 899.981 810.032 899.981L780.07 899.981Z" fill="#3E92CC" fill-opacity="0.1"/>
<path d="M780.059 899.969L810.02 899.969C826.558 899.969 839.982 886.545 839.982 870.007C839.982 853.47 826.558 840.046 810.02 840.046C793.483 840.046 780.059 853.47 780.059 870.007L780.059 899.969Z" fill="#011936" fill-opacity="0.1"/>
<path d="M0.0205078 960C0.0205071 976.574 -6.69145 991.561 -17.559 1002.43C-28.4144 1013.28 -43.4133 1020 -59.9873 1020.01L0.0205078 960Z" fill="#011936" fill-opacity="0.1"/>
<path d="M0.0205078 960C-16.5534 960 -31.5402 966.712 -42.4078 977.579C-53.2632 988.435 -59.9751 1003.43 -59.9873 1020.01L0.0205078 960Z" fill="#3E92CC" fill-opacity="0.1"/>
<path d="M0.0195286 1079.99C-16.5544 1079.99 -31.5412 1073.28 -42.4087 1062.41C-53.2642 1051.56 -59.9761 1036.56 -59.9882 1019.98L0.0195286 1079.99Z" fill="#011936" fill-opacity="0.1"/>
<path d="M0.0195286 1079.99C0.0195294 1063.42 -6.69242 1048.43 -17.56 1037.56C-28.4154 1026.71 -43.4143 1020 -59.9882 1019.98L0.0195286 1079.99Z" fill="#3E92CC" fill-opacity="0.1"/>
<path d="M120 660.023C120 626.888 93.128 600.016 59.9922 600.016C26.8565 600.016 -0.0155505 626.876 -0.015552 660.023C-0.0155534 693.171 26.8444 720.031 59.9922 720.031C93.1401 720.031 120 693.159 120 660.023ZM16.7764 660.023C16.7765 636.156 36.1248 616.808 59.9922 616.808C83.8596 616.808 103.208 636.156 103.208 660.023C103.208 683.891 83.8596 703.239 59.9922 703.239C36.1248 703.239 16.7764 683.891 16.7764 660.023Z" fill="#011936" fill-opacity="0.1"/>
<path d="M45.078 660.023C45.078 668.26 51.7553 674.938 59.9921 674.938C68.229 674.938 74.9062 668.26 74.9062 660.023C74.9062 651.787 68.229 645.109 59.9922 645.109C51.7553 645.109 45.078 651.787 45.078 660.023Z" fill="#011936" fill-opacity="0.1"/>
<path d="M93.7334 660.023C93.7334 641.39 78.6255 626.282 59.9919 626.282C41.3584 626.282 26.2504 641.39 26.2504 660.023C26.2504 678.657 41.3584 693.765 59.9919 693.765C78.6255 693.765 93.7334 678.657 93.7334 660.023ZM35.7005 660.023C35.7005 646.6 46.5801 635.732 59.9919 635.732C73.4037 635.732 84.2955 646.612 84.2955 660.023C84.2955 673.435 73.4158 684.327 59.9919 684.327C46.568 684.327 35.7005 673.447 35.7005 660.023Z" fill="#3E92CC" fill-opacity="0.1"/>
<path d="M-120.007 780.039C-120.007 746.903 -93.1348 720.031 -59.9991 720.031C-26.8633 720.031 0.00871222 746.891 0.00871077 780.039C0.00870932 813.187 -26.8512 840.047 -59.9991 840.047C-93.1469 840.047 -120.007 813.175 -120.007 780.039ZM-16.7833 780.039C-16.7833 756.172 -36.1316 736.823 -59.9991 736.823C-83.8665 736.823 -103.215 756.172 -103.215 780.039C-103.215 803.906 -83.8665 823.255 -59.9991 823.255C-36.1316 823.255 -16.7833 803.906 -16.7833 780.039Z" fill="#011936" fill-opacity="0.1"/>
<path d="M119.999 569.897C119.999 586.434 106.575 599.858 90.0376 599.858C73.5 599.858 60.0761 586.434 60.0761 569.897L60.0761 539.935L90.0376 539.935C106.575 539.935 119.999 553.359 119.999 569.897Z" fill="#011936" fill-opacity="0.1"/>
<path d="M90.0366 480C106.574 480 119.998 493.424 119.998 509.961C119.998 526.499 106.574 539.923 90.0366 539.923L60.0752 539.923L60.0752 509.961C60.0631 493.424 73.4991 480 90.0366 480Z" fill="#3E92CC" fill-opacity="0.1"/>
<path d="M59.9414 539.935L59.9414 569.897C59.9414 586.434 46.5175 599.858 29.9799 599.858C13.4424 599.858 0.0184739 586.434 0.0184746 569.897C0.0184754 553.359 13.4424 539.935 29.9799 539.935L59.9414 539.935Z" fill="#3E92CC" fill-opacity="0.1"/>
<path d="M59.9551 539.923L29.9936 539.923C13.456 539.923 0.0321564 526.499 0.0321571 509.961C0.0321578 493.424 13.456 480 29.9936 480C46.5312 480 59.9551 493.424 59.9551 509.961L59.9551 539.923Z" fill="#011936" fill-opacity="0.1"/>
<path d="M0.0195312 480C0.0195305 496.574 -6.69242 511.561 -17.56 522.428C-28.4154 533.284 -43.4143 539.996 -59.9882 540.008L0.0195312 480Z" fill="#011936" fill-opacity="0.1"/>
<path d="M0.0195312 480C-16.5544 480 -31.5412 486.712 -42.4087 497.579C-53.2642 508.435 -59.9761 523.434 -59.9882 540.008L0.0195312 480Z" fill="#3E92CC" fill-opacity="0.1"/>
<path d="M0.0185521 599.992C-16.5554 599.992 -31.5422 593.28 -42.4097 582.412C-53.2651 571.557 -59.9771 556.558 -59.9892 539.984L0.0185521 599.992Z" fill="#011936" fill-opacity="0.1"/>
<path d="M0.0185521 599.992C0.0185528 583.418 -6.6934 568.431 -17.5609 557.563C-28.4164 546.708 -43.4153 539.996 -59.9892 539.984L0.0185521 599.992Z" fill="#3E92CC" fill-opacity="0.1"/>
<path d="M-0.00585938 840.046C-0.0058601 856.62 6.70609 871.607 17.5736 882.474C28.4291 893.33 43.428 900.042 60.0019 900.054L-0.00585938 840.046Z" fill="#011936" fill-opacity="0.1"/>
<path d="M-0.00585938 840.046C16.5681 840.046 31.5549 846.758 42.4224 857.625C53.2778 868.481 59.9898 883.48 60.0019 900.054L-0.00585938 840.046Z" fill="#3E92CC" fill-opacity="0.1"/>
<path d="M-0.005862 960.037C16.5681 960.037 31.5549 953.325 42.4224 942.458C53.2778 931.602 59.9898 916.604 60.0019 900.03L-0.005862 960.037Z" fill="#011936" fill-opacity="0.1"/>
<path d="M-0.005862 960.037C-0.00586127 943.464 6.70609 928.477 17.5736 917.609C28.4291 906.754 43.428 900.042 60.0019 900.03L-0.005862 960.037Z" fill="#3E92CC" fill-opacity="0.1"/>
<path d="M119.999 840.046C103.425 840.046 88.4383 846.758 77.5707 857.625C66.7153 868.481 60.0033 883.48 59.9912 900.054L119.999 840.046Z" fill="#011936" fill-opacity="0.1"/>
<path d="M119.999 840.046C119.999 856.62 113.287 871.607 102.419 882.474C91.564 893.33 76.5651 900.042 59.9912 900.054L119.999 840.046Z" fill="#3E92CC" fill-opacity="0.1"/>
<path d="M119.999 960.037C119.999 943.464 113.287 928.477 102.419 917.609C91.564 906.754 76.5651 900.042 59.9912 900.03L119.987 960.025L119.999 960.037Z" fill="#011936" fill-opacity="0.1"/>
<path d="M119.999 960.037C103.425 960.037 88.4383 953.325 77.5707 942.458C66.7032 931.59 60.0033 916.604 59.9912 900.03L119.987 960.025L119.999 960.037Z" fill="#3E92CC" fill-opacity="0.1"/>
<path d="M1920.03 0C1920.03 16.5739 1913.31 31.5607 1902.45 42.4283C1891.59 53.2837 1876.59 59.9956 1860.02 60.0078L1920.03 0Z" fill="#011936" fill-opacity="0.1"/>
<path d="M1920.03 0C1903.45 -7.24469e-07 1888.47 6.71195 1877.6 17.5795C1866.74 28.4349 1860.03 43.4338 1860.02 60.0078L1920.03 0Z" fill="#3E92CC" fill-opacity="0.1"/>
<path d="M1920.03 119.992C1903.45 119.992 1888.47 113.28 1877.6 102.412C1866.74 91.5567 1860.03 76.5578 1860.02 59.9839L1920.03 119.992Z" fill="#011936" fill-opacity="0.1"/>
<path d="M1920.03 119.992C1920.03 103.418 1913.31 88.4309 1902.45 77.5634C1891.59 66.708 1876.59 59.996 1860.02 59.9839L1920.03 119.992Z" fill="#3E92CC" fill-opacity="0.1"/>
<path d="M1800.02 -2.62302e-06C1816.6 -1.89855e-06 1831.58 6.71195 1842.45 17.5795C1853.31 28.4349 1860.02 43.4338 1860.03 60.0078L1800.02 -2.62302e-06Z" fill="#011936" fill-opacity="0.1"/>
<path d="M1800.02 -2.62302e-06C1800.02 16.5739 1806.73 31.5607 1817.6 42.4283C1828.46 53.2837 1843.46 59.9956 1860.03 60.0078L1800.02 -2.62302e-06Z" fill="#3E92CC" fill-opacity="0.1"/>
<path d="M1800.02 119.992C1800.02 103.418 1806.73 88.4309 1817.6 77.5634C1828.46 66.708 1843.46 59.996 1860.03 59.9839L1800.03 119.98L1800.02 119.992Z" fill="#011936" fill-opacity="0.1"/>
<path d="M1800.02 119.992C1816.6 119.992 1831.58 113.28 1842.45 102.412C1853.32 91.5446 1860.02 76.5578 1860.03 59.9839L1800.03 119.98L1800.02 119.992Z" fill="#3E92CC" fill-opacity="0.1"/>
<path d="M1800 180.023C1800 146.888 1773.13 120.016 1739.99 120.016C1706.86 120.016 1679.98 146.876 1679.98 180.023C1679.98 213.171 1706.84 240.031 1739.99 240.031C1773.14 240.031 1800 213.159 1800 180.023ZM1696.78 180.023C1696.78 156.156 1716.12 136.808 1739.99 136.808C1763.86 136.808 1783.21 156.156 1783.21 180.023C1783.21 203.891 1763.86 223.239 1739.99 223.239C1716.12 223.239 1696.78 203.891 1696.78 180.023Z" fill="#011936" fill-opacity="0.1"/>
<path d="M1725.08 180.023C1725.08 188.26 1731.76 194.938 1739.99 194.938C1748.23 194.938 1754.91 188.26 1754.91 180.023C1754.91 171.787 1748.23 165.109 1739.99 165.109C1731.76 165.109 1725.08 171.787 1725.08 180.023Z" fill="#011936" fill-opacity="0.1"/>
<path d="M1773.73 180.023C1773.73 161.39 1758.63 146.282 1739.99 146.282C1721.36 146.282 1706.25 161.39 1706.25 180.023C1706.25 198.657 1721.36 213.765 1739.99 213.765C1758.63 213.765 1773.73 198.657 1773.73 180.023ZM1715.7 180.023C1715.7 166.6 1726.58 155.732 1739.99 155.732C1753.4 155.732 1764.3 166.612 1764.3 180.023C1764.3 193.435 1753.42 204.327 1739.99 204.327C1726.57 204.327 1715.7 193.447 1715.7 180.023Z" fill="#3E92CC" fill-opacity="0.1"/>
<path d="M1200.01 180.023C1200.01 146.888 1173.13 120.016 1140 120.016C1106.86 120.016 1079.99 146.876 1079.99 180.023C1079.99 213.171 1106.85 240.031 1140 240.031C1173.15 240.031 1200.01 213.159 1200.01 180.023ZM1096.78 180.023C1096.78 156.156 1116.13 136.808 1140 136.808C1163.87 136.808 1183.21 156.156 1183.21 180.023C1183.21 203.891 1163.87 223.239 1140 223.239C1116.13 223.239 1096.78 203.891 1096.78 180.023Z" fill="#011936" fill-opacity="0.1"/>
<path d="M1125.08 180.023C1125.08 188.26 1131.76 194.938 1140 194.938C1148.24 194.938 1154.91 188.26 1154.91 180.023C1154.91 171.787 1148.24 165.109 1140 165.109C1131.76 165.109 1125.08 171.787 1125.08 180.023Z" fill="#011936" fill-opacity="0.1"/>
<path d="M1173.74 180.023C1173.74 161.39 1158.63 146.282 1140 146.282C1121.37 146.282 1106.26 161.39 1106.26 180.023C1106.26 198.657 1121.37 213.765 1140 213.765C1158.63 213.765 1173.74 198.657 1173.74 180.023ZM1115.71 180.023C1115.71 166.6 1126.59 155.732 1140 155.732C1153.41 155.732 1164.3 166.612 1164.3 180.023C1164.3 193.435 1153.42 204.327 1140 204.327C1126.57 204.327 1115.71 193.447 1115.71 180.023Z" fill="#3E92CC" fill-opacity="0.1"/>
<path d="M1440.01 329.928C1440.01 346.465 1453.44 359.889 1469.98 359.889C1486.51 359.889 1499.94 346.465 1499.94 329.928L1499.94 299.966L1469.98 299.966C1453.44 299.966 1440.01 313.39 1440.01 329.928Z" fill="#3E92CC" fill-opacity="0.1"/>
<path d="M1469.98 240.031C1453.44 240.031 1440.01 253.455 1440.01 269.992C1440.01 286.53 1453.44 299.954 1469.98 299.954L1499.94 299.954L1499.94 269.992C1499.95 253.455 1486.51 240.031 1469.98 240.031Z" fill="#011936" fill-opacity="0.1"/>
<path d="M1500.07 299.966L1500.07 329.928C1500.07 346.465 1513.49 359.889 1530.03 359.889C1546.57 359.889 1559.99 346.465 1559.99 329.928C1559.99 313.39 1546.57 299.966 1530.03 299.966L1500.07 299.966Z" fill="#011936" fill-opacity="0.1"/>
<path d="M1500.06 299.954L1530.02 299.954C1546.56 299.954 1559.98 286.53 1559.98 269.992C1559.98 253.455 1546.56 240.031 1530.02 240.031C1513.48 240.031 1500.06 253.455 1500.06 269.992L1500.06 299.954Z" fill="#3E92CC" fill-opacity="0.1"/>
<path d="M1530.01 89.9813L1515.01 74.9945L1500.01 59.9956L1530.01 59.9956L1560 59.9956L1545 74.9945L1530.01 89.9813Z" fill="#3E92CC" fill-opacity="0.1"/>
<path d="M1530.02 30.0098L1545.02 44.9966L1560.02 59.9955L1530.02 59.9955L1500.02 59.9955L1515.02 44.9966L1530.02 30.0098Z" fill="#011936" fill-opacity="0.1"/>
<path d="M1470.02 89.9817L1485.02 74.9828L1500.01 59.9839L1500.01 89.9817L1500.01 119.98L1485.02 104.981L1470.02 89.9817Z" fill="#3E92CC" fill-opacity="0.1"/>
<path d="M1529.99 89.9934L1515.01 104.98L1500.01 119.979L1500.01 89.9934L1500.01 59.9956L1515.01 74.9945L1529.99 89.9934Z" fill="#011936" fill-opacity="0.1"/>
<path d="M1529.99 30.0103L1515.01 45.0092L1500.01 60.0081L1500.01 30.0103L1500.01 0.0124499L1515.01 15.0114L1529.99 30.0103Z" fill="#3E92CC" fill-opacity="0.1"/>
<path d="M1470.02 29.9978L1485.01 14.9989L1500.01 0L1500.01 29.9978L1500.01 59.9956L1485.01 44.9967L1470.02 29.9978Z" fill="#011936" fill-opacity="0.1"/>
<path d="M1470.02 29.998L1485.02 44.9849L1500.02 59.9837L1470.02 59.9837L1440.02 59.9837L1455.02 44.9848L1470.02 29.998Z" fill="#3E92CC" fill-opacity="0.1"/>
<path d="M1470.01 89.9696L1455.01 74.9828L1440.01 59.9839L1470.01 59.9839L1500.01 59.9839L1485.01 74.9828L1470.01 89.9696Z" fill="#011936" fill-opacity="0.1"/>
<path d="M1320.02 60.0078C1320.02 26.872 1293.15 -1.17461e-06 1260.01 -2.62302e-06C1226.88 -4.07143e-06 1200 26.8599 1200 60.0078C1200 93.1556 1226.86 120.016 1260.01 120.016C1293.16 120.016 1320.02 93.1435 1320.02 60.0078ZM1216.8 60.0078C1216.8 36.1403 1236.14 16.792 1260.01 16.792C1283.88 16.792 1303.23 36.1403 1303.23 60.0078C1303.23 83.8752 1283.88 103.224 1260.01 103.224C1236.14 103.224 1216.8 83.8752 1216.8 60.0078Z" fill="#3E92CC" fill-opacity="0.1"/>
<path d="M1245.1 60.0076C1245.1 68.2444 1251.77 74.9217 1260.01 74.9217C1268.25 74.9217 1274.93 68.2444 1274.93 60.0076C1274.93 51.7708 1268.25 45.0935 1260.01 45.0935C1251.77 45.0935 1245.1 51.7708 1245.1 60.0076Z" fill="#3E92CC" fill-opacity="0.1"/>
<path d="M1293.75 60.0076C1293.75 41.374 1278.64 26.2661 1260.01 26.2661C1241.38 26.2661 1226.27 41.374 1226.27 60.0076C1226.27 78.6411 1241.38 93.7491 1260.01 93.7491C1278.64 93.7491 1293.75 78.6411 1293.75 60.0076ZM1235.72 60.0076C1235.72 46.5837 1246.6 35.7161 1260.01 35.7161C1273.42 35.7161 1284.32 46.5958 1284.32 60.0076C1284.32 73.4194 1273.44 84.3111 1260.01 84.3111C1246.59 84.3111 1235.72 73.4315 1235.72 60.0076Z" fill="#011936" fill-opacity="0.1"/>
<path d="M1440 420.055C1440 386.919 1466.87 360.047 1500.01 360.047C1533.14 360.047 1560.02 386.907 1560.02 420.055C1560.02 453.202 1533.16 480.062 1500.01 480.062C1466.86 480.062 1440 453.19 1440 420.055ZM1543.22 420.055C1543.22 396.187 1523.88 376.839 1500.01 376.839C1476.14 376.839 1456.79 396.187 1456.79 420.055C1456.79 443.922 1476.14 463.27 1500.01 463.27C1523.88 463.27 1543.22 443.922 1543.22 420.055Z" fill="#3E92CC" fill-opacity="0.1"/>
<path d="M1514.92 420.055C1514.92 428.292 1508.25 434.969 1500.01 434.969C1491.77 434.969 1485.09 428.292 1485.09 420.055C1485.09 411.818 1491.77 405.141 1500.01 405.141C1508.25 405.141 1514.92 411.818 1514.92 420.055Z" fill="#3E92CC" fill-opacity="0.1"/>
<path d="M1466.27 420.054C1466.27 401.421 1481.38 386.313 1500.01 386.313C1518.64 386.313 1533.75 401.421 1533.75 420.054C1533.75 438.688 1518.64 453.796 1500.01 453.796C1481.38 453.796 1466.27 438.688 1466.27 420.054ZM1524.3 420.054C1524.3 406.631 1513.42 395.763 1500.01 395.763C1486.6 395.763 1475.71 406.643 1475.71 420.054C1475.71 433.466 1486.59 444.358 1500.01 444.358C1513.43 444.358 1524.3 433.478 1524.3 420.054Z" fill="#011936" fill-opacity="0.1"/>
<path d="M1679.99 360.047C1679.99 376.621 1686.71 391.608 1697.57 402.475C1708.43 413.331 1723.43 420.043 1740 420.055L1679.99 360.047Z" fill="#011936" fill-opacity="0.1"/>
<path d="M1679.99 360.047C1696.57 360.047 1711.55 366.759 1722.42 377.626C1733.28 388.482 1739.99 403.481 1740 420.055L1679.99 360.047Z" fill="#3E92CC" fill-opacity="0.1"/>
<path d="M1679.99 480.039C1696.57 480.039 1711.55 473.327 1722.42 462.459C1733.28 451.604 1739.99 436.605 1740 420.031L1679.99 480.039Z" fill="#011936" fill-opacity="0.1"/>
<path d="M1679.99 480.039C1679.99 463.465 1686.71 448.478 1697.57 437.61C1708.43 426.755 1723.43 420.043 1740 420.031L1679.99 480.039Z" fill="#3E92CC" fill-opacity="0.1"/>
<path d="M1800 360.047C1783.43 360.047 1768.44 366.759 1757.57 377.626C1746.72 388.482 1740 403.481 1739.99 420.055L1800 360.047Z" fill="#011936" fill-opacity="0.1"/>
<path d="M1800 360.047C1800 376.621 1793.29 391.608 1782.42 402.475C1771.56 413.331 1756.57 420.043 1739.99 420.055L1800 360.047Z" fill="#3E92CC" fill-opacity="0.1"/>
<path d="M1800 480.039C1800 463.465 1793.29 448.478 1782.42 437.61C1771.56 426.755 1756.57 420.043 1739.99 420.031L1799.99 480.026L1800 480.039Z" fill="#011936" fill-opacity="0.1"/>
<path d="M1800 480.039C1783.43 480.039 1768.44 473.327 1757.57 462.459C1746.7 451.591 1740 436.605 1739.99 420.031L1799.99 480.026L1800 480.039Z" fill="#3E92CC" fill-opacity="0.1"/>
<path d="M1889.68 690.397L1889.68 703.106C1889.68 712.217 1882.28 719.607 1873.18 719.607L1860.47 719.607L1860.47 706.898C1860.47 697.787 1867.87 690.397 1876.97 690.397L1889.68 690.397Z" fill="#3E92CC" fill-opacity="0.1"/>
<path d="M1889.68 689.488L1876.97 689.488C1867.86 689.488 1860.47 682.086 1860.47 672.987L1860.47 660.278L1873.18 660.278C1882.29 660.278 1889.68 667.68 1889.68 676.779L1889.68 689.488Z" fill="#3E92CC" fill-opacity="0.1"/>
<path d="M1859.38 706.91L1859.38 719.619L1846.67 719.619C1837.56 719.619 1830.17 712.217 1830.17 703.118L1830.17 690.409L1842.88 690.409C1851.99 690.409 1859.38 697.811 1859.38 706.91Z" fill="#011936" fill-opacity="0.1"/>
<path d="M1846.67 660.278L1859.38 660.278L1859.38 672.987C1859.38 682.098 1851.98 689.488 1842.88 689.488L1830.17 689.488L1830.17 676.779C1830.17 667.668 1837.57 660.278 1846.67 660.278Z" fill="#3E92CC" fill-opacity="0.1"/>
<path d="M1829.21 630.135L1829.21 642.844C1829.21 651.954 1821.81 659.345 1812.71 659.345L1800 659.345L1800 646.636C1800 637.525 1807.4 630.135 1816.5 630.135L1829.21 630.135Z" fill="#011936" fill-opacity="0.1"/>
<path d="M1829.21 689.488L1816.5 689.488C1807.39 689.488 1800 682.086 1800 672.987L1800 660.278L1812.71 660.278C1821.82 660.278 1829.21 667.68 1829.21 676.779L1829.21 689.488Z" fill="#3E92CC" fill-opacity="0.1"/>
<path d="M1889.68 630.135L1889.68 642.844C1889.68 651.954 1882.28 659.345 1873.18 659.345L1860.47 659.345L1860.47 646.636C1860.47 637.525 1867.87 630.135 1876.97 630.135L1889.68 630.135Z" fill="#3E92CC" fill-opacity="0.1"/>
<path d="M1889.69 629.226L1876.98 629.226C1867.87 629.226 1860.48 621.823 1860.48 612.725L1860.48 600.016L1873.19 600.016C1882.3 600.016 1889.69 607.418 1889.69 616.517L1889.69 629.226Z" fill="#011936" fill-opacity="0.1"/>
<path d="M1859.38 646.648L1859.38 659.357L1846.67 659.357C1837.56 659.357 1830.17 651.955 1830.17 642.856L1830.17 630.147L1842.88 630.147C1851.99 630.147 1859.38 637.549 1859.38 646.648Z" fill="#3E92CC" fill-opacity="0.1"/>
<path d="M1846.68 600.016L1859.39 600.016L1859.39 612.725C1859.39 621.836 1851.99 629.226 1842.89 629.226L1830.18 629.226L1830.18 616.517C1830.18 607.406 1837.58 600.016 1846.68 600.016Z" fill="#3E92CC" fill-opacity="0.1"/>
<path d="M1919.99 660.726L1919.99 673.435C1919.99 682.546 1912.59 689.936 1903.49 689.936L1890.78 689.936L1890.78 677.227C1890.78 668.117 1898.18 660.726 1907.28 660.726L1919.99 660.726Z" fill="#011936" fill-opacity="0.1"/>
<path d="M1919.99 659.83L1907.28 659.83C1898.17 659.83 1890.78 652.427 1890.78 643.328L1890.78 630.619L1903.49 630.619C1912.6 630.619 1919.99 638.022 1919.99 647.12L1919.99 659.83Z" fill="#3E92CC" fill-opacity="0.1"/>
<path d="M1800.02 929.943C1800.02 946.48 1813.45 959.904 1829.98 959.904C1846.52 959.904 1859.94 946.48 1859.94 929.943L1859.94 899.981L1829.98 899.981C1813.45 899.981 1800.02 913.405 1800.02 929.943Z" fill="#011936" fill-opacity="0.1"/>
<path d="M1829.98 840.046C1813.45 840.046 1800.02 853.47 1800.02 870.007C1800.02 886.545 1813.45 899.969 1829.98 899.969L1859.95 899.969L1859.95 870.007C1859.96 853.47 1846.52 840.046 1829.98 840.046Z" fill="#3E92CC" fill-opacity="0.1"/>
<path d="M1860.08 899.981L1860.08 929.943C1860.08 946.48 1873.5 959.904 1890.04 959.904C1906.58 959.904 1920 946.48 1920 929.943C1920 913.405 1906.58 899.981 1890.04 899.981L1860.08 899.981Z" fill="#3E92CC" fill-opacity="0.1"/>
<path d="M1860.07 899.969L1890.03 899.969C1906.56 899.969 1919.99 886.545 1919.99 870.007C1919.99 853.47 1906.56 840.046 1890.03 840.046C1873.49 840.046 1860.07 853.47 1860.07 870.007L1860.07 899.969Z" fill="#011936" fill-opacity="0.1"/>
<path d="M1649.67 690.397L1649.67 703.106C1649.67 712.217 1642.27 719.607 1633.17 719.607L1620.46 719.607L1620.46 706.898C1620.46 697.787 1627.86 690.397 1636.96 690.397L1649.67 690.397Z" fill="#3E92CC" fill-opacity="0.1"/>
<path d="M1649.67 689.488L1636.96 689.488C1627.85 689.488 1620.46 682.086 1620.46 672.987L1620.46 660.278L1633.17 660.278C1642.28 660.278 1649.67 667.68 1649.67 676.779L1649.67 689.488Z" fill="#3E92CC" fill-opacity="0.1"/>
<path d="M1619.37 706.91L1619.37 719.619L1606.66 719.619C1597.55 719.619 1590.16 712.217 1590.16 703.118L1590.16 690.409L1602.87 690.409C1611.98 690.409 1619.37 697.811 1619.37 706.91Z" fill="#011936" fill-opacity="0.1"/>
<path d="M1606.66 660.278L1619.37 660.278L1619.37 672.987C1619.37 682.098 1611.97 689.488 1602.87 689.488L1590.16 689.488L1590.16 676.779C1590.16 667.668 1597.56 660.278 1606.66 660.278Z" fill="#3E92CC" fill-opacity="0.1"/>
<path d="M1589.2 630.135L1589.2 642.844C1589.2 651.954 1581.8 659.345 1572.7 659.345L1559.99 659.345L1559.99 646.636C1559.99 637.525 1567.4 630.135 1576.49 630.135L1589.2 630.135Z" fill="#011936" fill-opacity="0.1"/>
<path d="M1589.2 689.488L1576.49 689.488C1567.38 689.488 1559.99 682.086 1559.99 672.987L1559.99 660.278L1572.7 660.278C1581.81 660.278 1589.2 667.68 1589.2 676.779L1589.2 689.488Z" fill="#3E92CC" fill-opacity="0.1"/>
<path d="M1649.67 630.135L1649.67 642.844C1649.67 651.954 1642.27 659.345 1633.17 659.345L1620.46 659.345L1620.46 646.636C1620.46 637.525 1627.86 630.135 1636.96 630.135L1649.67 630.135Z" fill="#3E92CC" fill-opacity="0.1"/>
<path d="M1649.68 629.226L1636.97 629.226C1627.86 629.226 1620.47 621.823 1620.47 612.725L1620.47 600.016L1633.18 600.016C1642.29 600.016 1649.68 607.418 1649.68 616.517L1649.68 629.226Z" fill="#011936" fill-opacity="0.1"/>
<path d="M1619.37 646.648L1619.37 659.357L1606.66 659.357C1597.55 659.357 1590.16 651.955 1590.16 642.856L1590.16 630.147L1602.87 630.147C1611.98 630.147 1619.37 637.549 1619.37 646.648Z" fill="#3E92CC" fill-opacity="0.1"/>
<path d="M1606.67 600.016L1619.38 600.016L1619.38 612.725C1619.38 621.836 1611.98 629.226 1602.88 629.226L1590.17 629.226L1590.17 616.517C1590.17 607.406 1597.58 600.016 1606.67 600.016Z" fill="#3E92CC" fill-opacity="0.1"/>
<path d="M1679.98 660.726L1679.98 673.435C1679.98 682.546 1672.58 689.936 1663.48 689.936L1650.77 689.936L1650.77 677.227C1650.77 668.117 1658.18 660.726 1667.28 660.726L1679.98 660.726Z" fill="#011936" fill-opacity="0.1"/>
<path d="M1679.98 659.83L1667.28 659.83C1658.16 659.83 1650.77 652.427 1650.77 643.328L1650.77 630.619L1663.48 630.619C1672.59 630.619 1679.98 638.022 1679.98 647.12L1679.98 659.83Z" fill="#3E92CC" fill-opacity="0.1"/>
<path d="M1200.01 660.023C1200.01 626.888 1173.13 600.016 1140 600.016C1106.86 600.016 1079.99 626.876 1079.99 660.023C1079.99 693.171 1106.85 720.031 1140 720.031C1173.15 720.031 1200.01 693.159 1200.01 660.023ZM1096.78 660.023C1096.78 636.156 1116.13 616.808 1140 616.808C1163.87 616.808 1183.21 636.156 1183.21 660.023C1183.21 683.891 1163.87 703.239 1140 703.239C1116.13 703.239 1096.78 683.891 1096.78 660.023Z" fill="#011936" fill-opacity="0.1"/>
<path d="M1125.08 660.023C1125.08 668.26 1131.76 674.938 1140 674.938C1148.24 674.938 1154.91 668.26 1154.91 660.023C1154.91 651.787 1148.24 645.109 1140 645.109C1131.76 645.109 1125.08 651.787 1125.08 660.023Z" fill="#011936" fill-opacity="0.1"/>
<path d="M1173.74 660.023C1173.74 641.39 1158.63 626.282 1140 626.282C1121.37 626.282 1106.26 641.39 1106.26 660.023C1106.26 678.657 1121.37 693.765 1140 693.765C1158.63 693.765 1173.74 678.657 1173.74 660.023ZM1115.71 660.023C1115.71 646.6 1126.59 635.732 1140 635.732C1153.41 635.732 1164.3 646.612 1164.3 660.023C1164.3 673.435 1153.42 684.327 1140 684.327C1126.57 684.327 1115.71 673.447 1115.71 660.023Z" fill="#3E92CC" fill-opacity="0.1"/>
<path d="M1200.01 720.031C1200.01 736.605 1206.72 751.592 1217.59 762.46C1228.44 773.315 1243.44 780.027 1260.01 780.039L1200.01 720.031Z" fill="#011936" fill-opacity="0.1"/>
<path d="M1200.01 720.031C1216.58 720.031 1231.57 726.743 1242.44 737.611C1253.29 748.466 1260 763.465 1260.01 780.039L1200.01 720.031Z" fill="#3E92CC" fill-opacity="0.1"/>
<path d="M1200.01 840.023C1216.58 840.023 1231.57 833.311 1242.44 822.443C1253.29 811.588 1260 796.589 1260.01 780.015L1200.01 840.023Z" fill="#011936" fill-opacity="0.1"/>
<path d="M1200.01 840.023C1200.01 823.449 1206.72 808.462 1217.59 797.594C1228.44 786.739 1243.44 780.027 1260.01 780.015L1200.01 840.023Z" fill="#3E92CC" fill-opacity="0.1"/>
<path d="M1320.01 720.031C1303.44 720.031 1288.45 726.743 1277.58 737.611C1266.73 748.466 1260.02 763.465 1260 780.039L1320.01 720.031Z" fill="#011936" fill-opacity="0.1"/>
<path d="M1320.01 720.031C1320.01 736.605 1313.3 751.592 1302.43 762.46C1291.58 773.315 1276.58 780.027 1260 780.039L1320.01 720.031Z" fill="#3E92CC" fill-opacity="0.1"/>
<path d="M1320.01 840.023C1320.01 823.449 1313.3 808.462 1302.43 797.594C1291.58 786.739 1276.58 780.027 1260 780.015L1320 840.011L1320.01 840.023Z" fill="#011936" fill-opacity="0.1"/>
<path d="M1320.01 840.023C1303.44 840.023 1288.45 833.311 1277.58 822.443C1266.71 811.576 1260.02 796.589 1260 780.015L1320 840.011L1320.01 840.023Z" fill="#3E92CC" fill-opacity="0.1"/>
<path d="M1350.02 810.013L1365.02 795.026L1380.02 780.027L1350.02 780.027L1320.02 780.027L1335.02 795.026L1350.02 810.013Z" fill="#011936" fill-opacity="0.1"/>
<path d="M1350.01 750.041L1335.01 765.028L1320.01 780.027L1350.01 780.027L1380.01 780.027L1365.01 765.028L1350.01 750.041Z" fill="#3E92CC" fill-opacity="0.1"/>
<path d="M1410 810.013L1395 795.014L1380.02 780.015L1380.02 810.013L1380.02 840.011L1395 825.012L1410 810.013Z" fill="#011936" fill-opacity="0.1"/>
<path d="M1350.03 810.025L1365.02 825.011L1380.02 840.01L1380.02 810.025L1380.02 780.027L1365.02 795.026L1350.03 810.025Z" fill="#3E92CC" fill-opacity="0.1"/>
<path d="M1350.03 750.041L1365.02 765.04L1380.02 780.039L1380.02 750.041L1380.02 720.043L1365.02 735.042L1350.03 750.041Z" fill="#011936" fill-opacity="0.1"/>
<path d="M1410 750.029L1395.02 735.03L1380.02 720.031L1380.02 750.029L1380.02 780.027L1395.02 765.028L1410 750.029Z" fill="#3E92CC" fill-opacity="0.1"/>
<path d="M1410 750.029L1395 765.016L1380.01 780.015L1410 780.015L1440 780.015L1425 765.016L1410 750.029Z" fill="#011936" fill-opacity="0.1"/>
<path d="M1410.02 810.001L1425.01 795.014L1440.01 780.015L1410.02 780.015L1380.02 780.015L1395.02 795.014L1410.02 810.001Z" fill="#3E92CC" fill-opacity="0.1"/>
<path d="M1559.99 780.039C1559.99 746.903 1586.87 720.031 1620 720.031C1653.14 720.031 1680.01 746.891 1680.01 780.039C1680.01 813.187 1653.15 840.047 1620 840.047C1586.85 840.047 1559.99 813.175 1559.99 780.039ZM1663.22 780.039C1663.22 756.172 1643.87 736.823 1620 736.823C1596.13 736.823 1576.79 756.172 1576.79 780.039C1576.79 803.906 1596.13 823.255 1620 823.255C1643.87 823.255 1663.22 803.906 1663.22 780.039Z" fill="#011936" fill-opacity="0.1"/>
<path d="M1634.92 780.039C1634.92 788.276 1628.24 794.953 1620 794.953C1611.76 794.953 1605.09 788.276 1605.09 780.039C1605.09 771.802 1611.76 765.125 1620 765.125C1628.24 765.125 1634.92 771.802 1634.92 780.039Z" fill="#011936" fill-opacity="0.1"/>
<path d="M1586.26 780.039C1586.26 761.406 1601.37 746.298 1620 746.298C1638.63 746.298 1653.74 761.406 1653.74 780.039C1653.74 798.673 1638.63 813.781 1620 813.781C1601.37 813.781 1586.26 798.673 1586.26 780.039ZM1644.29 780.039C1644.29 766.615 1633.41 755.748 1620 755.748C1606.59 755.748 1595.7 766.627 1595.7 780.039C1595.7 793.451 1606.58 804.343 1620 804.343C1633.43 804.343 1644.29 793.463 1644.29 780.039Z" fill="#3E92CC" fill-opacity="0.1"/>
<path d="M1800 569.897C1800 586.434 1786.58 599.858 1770.04 599.858C1753.5 599.858 1740.08 586.434 1740.08 569.897L1740.08 539.935L1770.04 539.935C1786.58 539.935 1800 553.359 1800 569.897Z" fill="#011936" fill-opacity="0.1"/>
<path d="M1770.04 480C1786.57 480 1800 493.424 1800 509.961C1800 526.499 1786.57 539.923 1770.04 539.923L1740.08 539.923L1740.08 509.961C1740.06 493.424 1753.5 480 1770.04 480Z" fill="#3E92CC" fill-opacity="0.1"/>
<path d="M1739.94 539.935L1739.94 569.897C1739.94 586.434 1726.52 599.858 1709.98 599.858C1693.44 599.858 1680.02 586.434 1680.02 569.897C1680.02 553.359 1693.44 539.935 1709.98 539.935L1739.94 539.935Z" fill="#3E92CC" fill-opacity="0.1"/>
<path d="M1739.96 539.923L1709.99 539.923C1693.46 539.923 1680.03 526.499 1680.03 509.961C1680.03 493.424 1693.46 480 1709.99 480C1726.53 480 1739.96 493.424 1739.96 509.961L1739.96 539.923Z" fill="#011936" fill-opacity="0.1"/>
<path d="M1530.01 569.981L1515.01 554.994L1500.01 539.996L1530.01 539.996L1560 539.996L1545 554.994L1530.01 569.981Z" fill="#3E92CC" fill-opacity="0.1"/>
<path d="M1530.02 510.01L1545.02 524.997L1560.02 539.995L1530.02 539.995L1500.02 539.995L1515.02 524.997L1530.02 510.01Z" fill="#011936" fill-opacity="0.1"/>
<path d="M1470.02 569.982L1485.02 554.983L1500.01 539.984L1500.01 569.982L1500.01 599.98L1485.02 584.981L1470.02 569.982Z" fill="#3E92CC" fill-opacity="0.1"/>
<path d="M1529.99 569.993L1515.01 584.98L1500.01 599.979L1500.01 569.993L1500.01 539.996L1515.01 554.995L1529.99 569.993Z" fill="#011936" fill-opacity="0.1"/>
<path d="M1529.99 510.01L1515.01 525.009L1500.01 540.008L1500.01 510.01L1500.01 480.012L1515.01 495.011L1529.99 510.01Z" fill="#3E92CC" fill-opacity="0.1"/>
<path d="M1470.02 509.998L1485.01 494.999L1500.01 480L1500.01 509.998L1500.01 539.996L1485.01 524.997L1470.02 509.998Z" fill="#011936" fill-opacity="0.1"/>
<path d="M1470.02 509.998L1485.02 524.985L1500.02 539.984L1470.02 539.984L1440.02 539.984L1455.02 524.985L1470.02 509.998Z" fill="#3E92CC" fill-opacity="0.1"/>
<path d="M1470.01 569.97L1455.01 554.983L1440.01 539.984L1470.01 539.984L1500.01 539.984L1485.01 554.983L1470.01 569.97Z" fill="#011936" fill-opacity="0.1"/>
<path d="M1409.7 570.381L1409.7 583.09C1409.7 592.201 1402.3 599.591 1393.2 599.591L1380.49 599.591L1380.49 586.882C1380.49 577.772 1387.89 570.381 1396.99 570.381L1409.7 570.381Z" fill="#011936" fill-opacity="0.1"/>
<path d="M1409.7 569.472L1396.99 569.472C1387.88 569.472 1380.49 562.07 1380.49 552.971L1380.49 540.262L1393.2 540.262C1402.31 540.262 1409.7 547.665 1409.7 556.763L1409.7 569.472Z" fill="#011936" fill-opacity="0.1"/>
<path d="M1379.4 586.895L1379.4 599.604L1366.69 599.604C1357.58 599.604 1350.19 592.201 1350.19 583.102L1350.19 570.393L1362.9 570.393C1372.01 570.393 1379.4 577.796 1379.4 586.895Z" fill="#3E92CC" fill-opacity="0.1"/>
<path d="M1366.69 540.262L1379.4 540.262L1379.4 552.971C1379.4 562.082 1372 569.473 1362.9 569.473L1350.19 569.473L1350.19 556.763C1350.19 547.653 1357.59 540.262 1366.69 540.262Z" fill="#011936" fill-opacity="0.1"/>
<path d="M1349.23 510.119L1349.23 522.828C1349.23 531.939 1341.83 539.329 1332.73 539.329L1320.02 539.329L1320.02 526.62C1320.02 517.51 1327.42 510.119 1336.52 510.119L1349.23 510.119Z" fill="#3E92CC" fill-opacity="0.1"/>
<path d="M1349.23 569.472L1336.52 569.472C1327.41 569.472 1320.02 562.07 1320.02 552.971L1320.02 540.262L1332.73 540.262C1341.84 540.262 1349.23 547.665 1349.23 556.763L1349.23 569.472Z" fill="#011936" fill-opacity="0.1"/>
<path d="M1409.7 510.119L1409.7 522.828C1409.7 531.939 1402.3 539.329 1393.2 539.329L1380.49 539.329L1380.49 526.62C1380.49 517.51 1387.89 510.119 1396.99 510.119L1409.7 510.119Z" fill="#011936" fill-opacity="0.1"/>
<path d="M1409.71 509.21L1397 509.21C1387.89 509.21 1380.5 501.808 1380.5 492.709L1380.5 480L1393.21 480C1402.32 480 1409.71 487.403 1409.71 496.501L1409.71 509.21Z" fill="#3E92CC" fill-opacity="0.1"/>
<path d="M1379.4 526.632L1379.4 539.341L1366.69 539.341C1357.58 539.341 1350.19 531.939 1350.19 522.84L1350.19 510.131L1362.9 510.131C1372.01 510.131 1379.4 517.533 1379.4 526.632Z" fill="#011936" fill-opacity="0.1"/>
<path d="M1366.7 480L1379.41 480L1379.41 492.709C1379.41 501.82 1372.01 509.21 1362.91 509.21L1350.2 509.21L1350.2 496.501C1350.2 487.39 1357.6 480 1366.7 480Z" fill="#011936" fill-opacity="0.1"/>
<path d="M1440.01 540.71L1440.01 553.419C1440.01 562.53 1432.61 569.921 1423.51 569.921L1410.8 569.921L1410.8 557.211C1410.8 548.101 1418.2 540.71 1427.3 540.71L1440.01 540.71Z" fill="#3E92CC" fill-opacity="0.1"/>
<path d="M1440.01 539.814L1427.3 539.814C1418.19 539.814 1410.8 532.412 1410.8 523.313L1410.8 510.604L1423.51 510.604C1432.62 510.604 1440.01 518.006 1440.01 527.105L1440.01 539.814Z" fill="#011936" fill-opacity="0.1"/>
<path d="M1440 900.054C1440 866.918 1466.87 840.046 1500.01 840.046C1533.14 840.046 1560.02 866.906 1560.02 900.054C1560.02 933.202 1533.16 960.061 1500.01 960.061C1466.86 960.061 1440 933.189 1440 900.054ZM1543.22 900.054C1543.22 876.186 1523.88 856.838 1500.01 856.838C1476.14 856.838 1456.79 876.186 1456.79 900.054C1456.79 923.921 1476.14 943.269 1500.01 943.269C1523.88 943.269 1543.22 923.921 1543.22 900.054Z" fill="#3E92CC" fill-opacity="0.1"/>
<path d="M1514.92 900.054C1514.92 908.291 1508.25 914.968 1500.01 914.968C1491.77 914.968 1485.09 908.291 1485.09 900.054C1485.09 891.817 1491.77 885.14 1500.01 885.14C1508.25 885.14 1514.92 891.817 1514.92 900.054Z" fill="#3E92CC" fill-opacity="0.1"/>
<path d="M1466.27 900.053C1466.27 881.42 1481.38 866.312 1500.01 866.312C1518.64 866.312 1533.75 881.42 1533.75 900.053C1533.75 918.687 1518.64 933.795 1500.01 933.795C1481.38 933.795 1466.27 918.687 1466.27 900.053ZM1524.3 900.053C1524.3 886.63 1513.42 875.762 1500.01 875.762C1486.6 875.762 1475.71 886.642 1475.71 900.053C1475.71 913.465 1486.59 924.357 1500.01 924.357C1513.43 924.357 1524.3 913.477 1524.3 900.053Z" fill="#011936" fill-opacity="0.1"/>
</g>
<defs>
<clipPath id="clip0_1379_10792">
<rect width="1920" height="1080" fill="white"/>
</clipPath>
</defs>
</svg>
