<svg width="500" height="500" viewBox="0 0 500 500" fill="none" xmlns="http://www.w3.org/2000/svg">
<path d="M125.034 374.988L187.506 312.483L250.021 249.977V374.988V499.954L187.506 437.494L125.034 374.988Z" fill="url(#paint0_linear_1361_73)"/>
<path d="M375.007 374.989L312.491 437.495L250.02 500V374.989V250.023L312.491 312.528L375.007 374.989Z" fill="url(#paint1_linear_1361_73)"/>
<path d="M125.032 125.011L187.548 187.516L250.064 249.977H125.032H0L62.5159 187.516L125.032 125.011Z" fill="url(#paint2_linear_1361_73)"/>
<path d="M124.989 374.943L62.5179 312.483L0.00195312 249.977H124.989H250.021L187.505 312.483L124.989 374.943Z" fill="url(#paint3_linear_1361_73)"/>
<path d="M374.967 374.944L312.451 312.439L249.979 249.978H374.967H499.998L437.483 312.439L374.967 374.944Z" fill="url(#paint4_linear_1361_73)"/>
<path d="M375.013 125.011L437.529 187.472L500 249.978H375.013H249.981L312.497 187.472L375.013 125.011Z" fill="url(#paint5_linear_1361_73)"/>
<path d="M375.051 125.012L312.535 187.517L250.063 250.023V125.012V0.000488281L312.535 62.506L375.051 125.012Z" fill="url(#paint6_linear_1361_73)"/>
<path d="M125.078 125.011L187.549 62.5055L250.065 0V125.011V249.977L187.549 187.472L125.078 125.011Z" fill="url(#paint7_linear_1361_73)"/>
<defs>
<linearGradient id="paint0_linear_1361_73" x1="166.161" y1="433.699" x2="308.726" y2="333.846" gradientUnits="userSpaceOnUse">
<stop stop-color="#051A35"/>
<stop offset="1" stop-color="#1A3250"/>
</linearGradient>
<linearGradient id="paint1_linear_1361_73" x1="191.255" y1="416.109" x2="333.865" y2="316.256" gradientUnits="userSpaceOnUse">
<stop stop-color="#3E93CD"/>
<stop offset="0.37" stop-color="#4697CF"/>
<stop offset="0.97" stop-color="#5EA5D5"/>
<stop offset="1" stop-color="#60A6D6"/>
</linearGradient>
<linearGradient id="paint2_linear_1361_73" x1="32.3297" y1="296.142" x2="200.122" y2="178.65" gradientUnits="userSpaceOnUse">
<stop stop-color="#051A35"/>
<stop offset="1" stop-color="#1A3250"/>
</linearGradient>
<linearGradient id="paint3_linear_1361_73" x1="49.9254" y1="321.278" x2="217.673" y2="203.786" gradientUnits="userSpaceOnUse">
<stop stop-color="#3E93CD"/>
<stop offset="0.37" stop-color="#4697CF"/>
<stop offset="0.97" stop-color="#5EA5D5"/>
<stop offset="1" stop-color="#60A6D6"/>
</linearGradient>
<linearGradient id="paint4_linear_1361_73" x1="299.903" y1="321.279" x2="467.65" y2="203.787" gradientUnits="userSpaceOnUse">
<stop stop-color="#051A35"/>
<stop offset="1" stop-color="#1A3250"/>
</linearGradient>
<linearGradient id="paint5_linear_1361_73" x1="282.311" y1="296.143" x2="450.059" y2="178.651" gradientUnits="userSpaceOnUse">
<stop stop-color="#3E93CD"/>
<stop offset="0.37" stop-color="#4697CF"/>
<stop offset="0.97" stop-color="#5EA5D5"/>
<stop offset="1" stop-color="#60A6D6"/>
</linearGradient>
<linearGradient id="paint6_linear_1361_73" x1="191.298" y1="166.131" x2="333.908" y2="66.2786" gradientUnits="userSpaceOnUse">
<stop stop-color="#051A35"/>
<stop offset="1" stop-color="#1A3250"/>
</linearGradient>
<linearGradient id="paint7_linear_1361_73" x1="166.16" y1="183.722" x2="308.77" y2="83.869" gradientUnits="userSpaceOnUse">
<stop stop-color="#3E93CD"/>
<stop offset="0.37" stop-color="#4697CF"/>
<stop offset="0.97" stop-color="#5EA5D5"/>
<stop offset="1" stop-color="#60A6D6"/>
</linearGradient>
</defs>
</svg>
