<svg width="500" height="500" viewBox="0 0 500 500" fill="none" xmlns="http://www.w3.org/2000/svg">
<path d="M498.163 498.921C429.115 498.921 366.615 470.922 321.389 425.695C276.162 380.468 248.162 317.969 248.162 248.921L498.163 498.921Z" fill="url(#paint0_linear_1361_87)"/>
<path d="M498.163 498.921C498.163 429.874 470.163 367.374 424.936 322.148C379.71 276.921 317.209 248.921 248.162 248.921L498.163 498.921Z" fill="url(#paint1_linear_1361_87)"/>
<path d="M0 500C0 430.953 27.9997 368.453 73.2264 323.226C118.453 278 180.953 250 250.001 250L0 500Z" fill="url(#paint2_linear_1361_87)"/>
<path d="M0 500C69.0474 500 131.548 472 176.774 426.774C222.001 381.547 250.001 319.047 250.001 250L0 500Z" fill="url(#paint3_linear_1361_87)"/>
<path d="M500 0C500 69.0471 472 131.547 426.773 176.774C381.547 222 319.046 250 249.999 250L500 0Z" fill="url(#paint4_linear_1361_87)"/>
<path d="M500 0C430.952 0 368.452 27.9996 323.225 73.2262C277.999 118.453 249.999 180.953 249.999 250L500 0Z" fill="url(#paint5_linear_1361_87)"/>
<path d="M0 0C69.0474 0 131.548 27.9996 176.774 73.2262C222.001 118.453 250.001 180.953 250.001 250L0 0Z" fill="url(#paint6_linear_1361_87)"/>
<path d="M0 0C0 69.0471 27.9997 131.547 73.2264 176.774C118.453 222 180.953 250 250.001 250L0 0Z" fill="url(#paint7_linear_1361_87)"/>
<defs>
<linearGradient id="paint0_linear_1361_87" x1="310.941" y1="417.476" x2="398.283" y2="356.323" gradientUnits="userSpaceOnUse">
<stop stop-color="#3E93CD"/>
<stop offset="0.36" stop-color="#4194CD"/>
<stop offset="0.68" stop-color="#4C9BD0"/>
<stop offset="0.98" stop-color="#5EA5D5"/>
<stop offset="1" stop-color="#60A6D6"/>
</linearGradient>
<linearGradient id="paint1_linear_1361_87" x1="347.995" y1="391.52" x2="435.337" y2="330.366" gradientUnits="userSpaceOnUse">
<stop stop-color="#051A35"/>
<stop offset="1" stop-color="#1A3250"/>
</linearGradient>
<linearGradient id="paint2_linear_1361_87" x1="-30.6" y1="456.352" x2="254.643" y2="256.639" gradientUnits="userSpaceOnUse">
<stop stop-color="#3E93CD"/>
<stop offset="0.36" stop-color="#4194CD"/>
<stop offset="0.68" stop-color="#4C9BD0"/>
<stop offset="0.98" stop-color="#5EA5D5"/>
<stop offset="1" stop-color="#60A6D6"/>
</linearGradient>
<linearGradient id="paint3_linear_1361_87" x1="-4.6434" y1="493.36" x2="280.554" y2="293.694" gradientUnits="userSpaceOnUse">
<stop stop-color="#051A35"/>
<stop offset="1" stop-color="#1A3250"/>
</linearGradient>
<linearGradient id="paint4_linear_1361_87" x1="245.356" y1="243.36" x2="530.553" y2="43.6933" gradientUnits="userSpaceOnUse">
<stop stop-color="#3E93CD"/>
<stop offset="0.36" stop-color="#4194CD"/>
<stop offset="0.68" stop-color="#4C9BD0"/>
<stop offset="0.98" stop-color="#5EA5D5"/>
<stop offset="1" stop-color="#60A6D6"/>
</linearGradient>
<linearGradient id="paint5_linear_1361_87" x1="219.399" y1="206.352" x2="504.642" y2="6.6391" gradientUnits="userSpaceOnUse">
<stop stop-color="#051A35"/>
<stop offset="1" stop-color="#1A3250"/>
</linearGradient>
<linearGradient id="paint6_linear_1361_87" x1="99.8331" y1="142.598" x2="187.175" y2="81.4447" gradientUnits="userSpaceOnUse">
<stop stop-color="#3E93CD"/>
<stop offset="0.36" stop-color="#4194CD"/>
<stop offset="0.68" stop-color="#4C9BD0"/>
<stop offset="0.98" stop-color="#5EA5D5"/>
<stop offset="1" stop-color="#60A6D6"/>
</linearGradient>
<linearGradient id="paint7_linear_1361_87" x1="62.7788" y1="168.555" x2="150.121" y2="107.401" gradientUnits="userSpaceOnUse">
<stop stop-color="#051A35"/>
<stop offset="1" stop-color="#1A3250"/>
</linearGradient>
</defs>
</svg>
