<svg width="96" height="96" viewBox="0 0 96 96" fill="none" xmlns="http://www.w3.org/2000/svg">
<path d="M47.8953 95.9523C74.3457 95.9523 95.7819 74.4692 95.7819 47.9718C95.7819 21.4744 74.3457 0 47.8953 0C21.445 0 0 21.4832 0 47.9718C0 74.4604 21.445 95.9523 47.8953 95.9523ZM47.8953 13.4237C66.9469 13.4237 82.3821 28.8951 82.3821 47.9718C82.3821 67.0485 66.9382 82.5199 47.8953 82.5199C28.8525 82.5199 13.4086 67.0485 13.4086 47.9718C13.4086 28.8951 28.8525 13.4237 47.8953 13.4237Z" fill="url(#paint0_linear_1247_19)"/>
<path d="M47.8954 59.8991C54.4662 59.8991 59.7928 54.563 59.7928 47.9805C59.7928 41.3981 54.4662 36.062 47.8954 36.062C41.3247 36.062 35.998 41.3981 35.998 47.9805C35.998 54.563 41.3247 59.8991 47.8954 59.8991Z" fill="url(#paint1_linear_1247_19)"/>
<path d="M47.8956 74.9504C62.7717 74.9504 74.8263 62.8743 74.8263 47.9718C74.8263 33.0692 62.7717 20.9931 47.8956 20.9931C33.0195 20.9931 20.9648 33.0692 20.9648 47.9718C20.9648 62.8743 33.0195 74.9504 47.8956 74.9504ZM47.8956 28.545C58.605 28.545 67.2878 37.2433 67.2878 47.9718C67.2878 58.7002 58.605 67.3985 47.8956 67.3985C37.1862 67.3985 28.5033 58.7002 28.5033 47.9718C28.5033 37.2433 37.1862 28.545 47.8956 28.545Z" fill="url(#paint2_linear_1247_19)"/>
<defs>
<linearGradient id="paint0_linear_1247_19" x1="8.66536" y1="75.493" x2="87.2257" y2="20.5905" gradientUnits="userSpaceOnUse">
<stop stop-color="#051A35"/>
<stop offset="1" stop-color="#1A3250"/>
</linearGradient>
<linearGradient id="paint1_linear_1247_19" x1="38.1469" y1="54.8149" x2="57.6668" y2="41.17" gradientUnits="userSpaceOnUse">
<stop stop-color="#051A35"/>
<stop offset="1" stop-color="#1A3250"/>
</linearGradient>
<linearGradient id="paint2_linear_1247_19" x1="25.8391" y1="63.4519" x2="70.0124" y2="32.5742" gradientUnits="userSpaceOnUse">
<stop stop-color="#3E93CD"/>
<stop offset="0.42" stop-color="#4296CE"/>
<stop offset="0.92" stop-color="#51A1D3"/>
<stop offset="1" stop-color="#54A4D5"/>
</linearGradient>
</defs>
</svg>
