<svg width="500" height="500" viewBox="0 0 500 500" fill="none" xmlns="http://www.w3.org/2000/svg">
<path d="M125.013 250.249C56.0008 250.249 0.00195312 306.142 0.00195312 375.124C0.00195312 444.062 55.9555 500 125.013 500C194.071 500 250.024 444.107 250.024 375.124V250.249H125.013Z" fill="url(#paint0_linear_1361_82)"/>
<path d="M374.989 250.249H249.978V375.124C249.978 444.062 305.931 500 374.989 500C444.001 500 500 444.107 500 375.124C500 306.187 444.046 250.249 374.989 250.249Z" fill="url(#paint1_linear_1361_82)"/>
<path d="M125.011 0.000488281C55.9535 0.000488281 0 55.9385 0 124.876C0 193.813 55.9535 249.751 125.011 249.751H250.022V124.876C249.977 55.9385 194.024 0.000488281 125.011 0.000488281Z" fill="url(#paint2_linear_1361_82)"/>
<path d="M374.989 0C305.976 0 249.978 55.8927 249.978 124.875L249.978 249.751H374.989C444.001 249.751 500 193.858 500 124.875C500 55.938 444.046 0 374.989 0Z" fill="url(#paint3_linear_1361_82)"/>
<defs>
<linearGradient id="paint0_linear_1361_82" x1="22.5829" y1="446.734" x2="267.442" y2="275.137" gradientUnits="userSpaceOnUse">
<stop stop-color="#3E93CD"/>
<stop offset="0.42" stop-color="#4296CE"/>
<stop offset="0.92" stop-color="#51A1D3"/>
<stop offset="1" stop-color="#54A4D5"/>
</linearGradient>
<linearGradient id="paint1_linear_1361_82" x1="258.502" y1="426.669" x2="463.171" y2="283.195" gradientUnits="userSpaceOnUse">
<stop stop-color="#051A35"/>
<stop offset="0.38" stop-color="#091E3A"/>
<stop offset="0.87" stop-color="#162D4A"/>
<stop offset="1" stop-color="#1B3250"/>
</linearGradient>
<linearGradient id="paint2_linear_1361_82" x1="36.6827" y1="216.596" x2="241.351" y2="73.1221" gradientUnits="userSpaceOnUse">
<stop stop-color="#051A35"/>
<stop offset="0.39" stop-color="#0A1F3B"/>
<stop offset="0.95" stop-color="#1A304D"/>
<stop offset="1" stop-color="#1C3250"/>
</linearGradient>
<linearGradient id="paint3_linear_1361_82" x1="232.384" y1="224.613" x2="477.244" y2="53.0154" gradientUnits="userSpaceOnUse">
<stop stop-color="#3E93CD"/>
<stop offset="0.44" stop-color="#4397CF"/>
<stop offset="1" stop-color="#54A4D5"/>
</linearGradient>
</defs>
</svg>
