<svg width="501" height="501" viewBox="0 0 501 501" fill="none" xmlns="http://www.w3.org/2000/svg">
<path d="M122.264 126.904V184.265C122.264 219.68 93.4975 248.407 58.1401 248.407H0.796032V191.046C0.796032 155.631 29.5622 126.904 64.9197 126.904H122.264Z" fill="url(#paint0_linear_1361_96)"/>
<path d="M0.795898 310.476L0.795898 253.115H58.1399C93.5444 253.115 122.264 281.89 122.264 317.258V374.618H64.9195C29.515 374.618 0.795898 345.844 0.795898 310.476Z" fill="url(#paint1_linear_1361_96)"/>
<path d="M379.325 126.902H436.669C472.074 126.902 500.793 155.676 500.793 191.044V248.405H443.449C408.044 248.405 379.325 219.63 379.325 184.262V126.902Z" fill="url(#paint2_linear_1361_96)"/>
<path d="M443.448 253.161H500.792V310.522C500.792 345.936 472.026 374.664 436.668 374.664H379.324V317.303C379.324 281.888 408.09 253.161 443.448 253.161Z" fill="url(#paint3_linear_1361_96)"/>
<path d="M126.923 379.279H184.267C219.671 379.279 248.39 408.053 248.39 443.421V500.782H191.046C155.642 500.782 126.923 472.007 126.923 436.64V379.279Z" fill="url(#paint4_linear_1361_96)"/>
<path d="M374.564 379.281V436.641C374.564 472.056 345.798 500.784 310.441 500.784H253.097V443.423C253.097 408.008 281.863 379.281 317.22 379.281H374.564Z" fill="url(#paint5_linear_1361_96)"/>
<path d="M253.147 310.381V253.02H310.492C345.896 253.02 374.615 281.795 374.615 317.163V374.523H317.271C281.867 374.523 253.147 345.749 253.147 310.381Z" fill="url(#paint6_linear_1361_96)"/>
<path d="M191.091 253.068H248.435V310.429C248.435 345.844 219.668 374.571 184.311 374.571H126.967V317.211C126.967 281.796 155.733 253.068 191.091 253.068Z" fill="url(#paint7_linear_1361_96)"/>
<path d="M374.614 126.856V184.217C374.614 219.631 345.848 248.359 310.491 248.359H253.147V190.998C253.147 155.583 281.913 126.856 317.27 126.856H374.614Z" fill="url(#paint8_linear_1361_96)"/>
<path d="M126.925 126.807H184.269C219.673 126.807 248.392 155.581 248.392 190.949V248.31H191.048C155.644 248.31 126.925 219.535 126.925 184.168V126.807Z" fill="url(#paint9_linear_1361_96)"/>
<path d="M253.15 0.783203L310.494 0.783203C345.899 0.783203 374.618 29.5577 374.618 64.9255V122.286H317.274C281.869 122.286 253.15 93.5116 253.15 58.1439V0.783203Z" fill="url(#paint10_linear_1361_96)"/>
<path d="M248.436 0.784668V58.1453C248.436 93.5601 219.669 122.288 184.312 122.288H126.968V64.9269C126.968 29.5121 155.734 0.784668 191.092 0.784668L248.436 0.784668Z" fill="url(#paint11_linear_1361_96)"/>
<defs>
<linearGradient id="paint0_linear_1361_96" x1="-7.77263" y1="236.21" x2="130.812" y2="139.186" gradientUnits="userSpaceOnUse">
<stop stop-color="#051A35"/>
<stop offset="1" stop-color="#1A3250"/>
</linearGradient>
<linearGradient id="paint1_linear_1361_96" x1="12.8485" y1="347.963" x2="110.182" y2="279.844" gradientUnits="userSpaceOnUse">
<stop stop-color="#3E93CD"/>
<stop offset="0.49" stop-color="#4094CD"/>
<stop offset="0.8" stop-color="#499BD1"/>
<stop offset="1" stop-color="#54A4D5"/>
</linearGradient>
<linearGradient id="paint2_linear_1361_96" x1="391.378" y1="221.749" x2="488.712" y2="153.631" gradientUnits="userSpaceOnUse">
<stop stop-color="#3E93CD"/>
<stop offset="0.49" stop-color="#4094CD"/>
<stop offset="0.8" stop-color="#499BD1"/>
<stop offset="1" stop-color="#54A4D5"/>
</linearGradient>
<linearGradient id="paint3_linear_1361_96" x1="370.756" y1="362.419" x2="509.34" y2="265.396" gradientUnits="userSpaceOnUse">
<stop stop-color="#051A35"/>
<stop offset="1" stop-color="#1A3250"/>
</linearGradient>
<linearGradient id="paint4_linear_1361_96" x1="139.023" y1="474.079" x2="236.356" y2="405.961" gradientUnits="userSpaceOnUse">
<stop stop-color="#051A35"/>
<stop offset="1" stop-color="#1A3250"/>
</linearGradient>
<linearGradient id="paint5_linear_1361_96" x1="244.575" y1="488.539" x2="383.16" y2="391.516" gradientUnits="userSpaceOnUse">
<stop stop-color="#3E93CD"/>
<stop offset="0.49" stop-color="#4094CD"/>
<stop offset="0.8" stop-color="#499BD1"/>
<stop offset="1" stop-color="#54A4D5"/>
</linearGradient>
<linearGradient id="paint6_linear_1361_96" x1="265.2" y1="347.868" x2="362.534" y2="279.749" gradientUnits="userSpaceOnUse">
<stop stop-color="#3E93CD"/>
<stop offset="0.49" stop-color="#4094CD"/>
<stop offset="0.8" stop-color="#499BD1"/>
<stop offset="1" stop-color="#54A4D5"/>
</linearGradient>
<linearGradient id="paint7_linear_1361_96" x1="118.398" y1="362.327" x2="256.983" y2="265.303" gradientUnits="userSpaceOnUse">
<stop stop-color="#3E93CD"/>
<stop offset="0.49" stop-color="#4094CD"/>
<stop offset="0.8" stop-color="#499BD1"/>
<stop offset="1" stop-color="#54A4D5"/>
</linearGradient>
<linearGradient id="paint8_linear_1361_96" x1="244.578" y1="236.114" x2="383.162" y2="139.091" gradientUnits="userSpaceOnUse">
<stop stop-color="#3E93CD"/>
<stop offset="0.49" stop-color="#4094CD"/>
<stop offset="0.8" stop-color="#499BD1"/>
<stop offset="1" stop-color="#54A4D5"/>
</linearGradient>
<linearGradient id="paint9_linear_1361_96" x1="139.024" y1="221.655" x2="236.358" y2="153.536" gradientUnits="userSpaceOnUse">
<stop stop-color="#3E93CD"/>
<stop offset="0.49" stop-color="#4094CD"/>
<stop offset="0.8" stop-color="#499BD1"/>
<stop offset="1" stop-color="#54A4D5"/>
</linearGradient>
<linearGradient id="paint10_linear_1361_96" x1="265.203" y1="95.6308" x2="362.537" y2="27.5122" gradientUnits="userSpaceOnUse">
<stop stop-color="#051A35"/>
<stop offset="1" stop-color="#1A3250"/>
</linearGradient>
<linearGradient id="paint11_linear_1361_96" x1="118.399" y1="110.09" x2="256.984" y2="13.0669" gradientUnits="userSpaceOnUse">
<stop stop-color="#3E93CD"/>
<stop offset="0.49" stop-color="#4094CD"/>
<stop offset="0.8" stop-color="#499BD1"/>
<stop offset="1" stop-color="#54A4D5"/>
</linearGradient>
</defs>
</svg>
