<svg width="95" height="95" viewBox="0 0 95 95" fill="none" xmlns="http://www.w3.org/2000/svg">
<path d="M94.8382 95.0072C81.8489 95.0072 70.0912 89.7305 61.5831 81.2072C53.075 72.684 47.8076 60.9054 47.8076 47.893L94.8382 95.0072Z" fill="url(#paint0_linear_1247_10)"/>
<path d="M94.8382 95.0072C94.8382 81.9948 89.5708 70.2162 81.0627 61.693C72.5546 53.1697 60.7969 47.893 47.8076 47.893L94.8382 95.0072Z" fill="url(#paint1_linear_1247_10)"/>
<path d="M0 94.2284C0 81.216 5.26735 69.4374 13.7755 60.9142C22.2836 52.3909 34.0412 47.1142 47.0306 47.1142L0 94.2284Z" fill="url(#paint2_linear_1247_10)"/>
<path d="M0 94.2284C12.9893 94.2284 24.7469 88.9517 33.2551 80.4284C41.7632 71.9052 47.0306 60.1266 47.0306 47.1142L0 94.2284Z" fill="url(#paint3_linear_1247_10)"/>
<path d="M94.0608 0C94.0608 13.0124 88.7935 24.791 80.2853 33.3142C71.7772 41.8375 60.0196 47.1142 47.0303 47.1142L94.0608 0Z" fill="url(#paint4_linear_1247_10)"/>
<path d="M94.0608 0C81.0715 0 69.3139 5.27672 60.8058 13.8C52.2976 22.3232 47.0303 34.1018 47.0303 47.1142L94.0608 0Z" fill="url(#paint5_linear_1247_10)"/>
<path d="M0 0C12.9893 0 24.7469 5.27672 33.2551 13.8C41.7632 22.3232 47.0306 34.1018 47.0306 47.1142L0 0Z" fill="url(#paint6_linear_1247_10)"/>
<path d="M0 0C0 13.0124 5.26735 24.791 13.7755 33.3142C22.2836 41.8375 34.0412 47.1142 47.0306 47.1142L0 0Z" fill="url(#paint7_linear_1247_10)"/>
<defs>
<linearGradient id="paint0_linear_1247_10" x1="59.6177" y1="79.6583" x2="76.0679" y2="68.161" gradientUnits="userSpaceOnUse">
<stop stop-color="#3E93CD"/>
<stop offset="0.36" stop-color="#4194CD"/>
<stop offset="0.68" stop-color="#4C9BD0"/>
<stop offset="0.98" stop-color="#5EA5D5"/>
<stop offset="1" stop-color="#60A6D6"/>
</linearGradient>
<linearGradient id="paint1_linear_1247_10" x1="66.5884" y1="74.7667" x2="83.0386" y2="63.2693" gradientUnits="userSpaceOnUse">
<stop stop-color="#051A35"/>
<stop offset="1" stop-color="#1A3250"/>
</linearGradient>
<linearGradient id="paint2_linear_1247_10" x1="-5.75652" y1="86.0027" x2="47.9668" y2="48.4553" gradientUnits="userSpaceOnUse">
<stop stop-color="#3E93CD"/>
<stop offset="0.36" stop-color="#4194CD"/>
<stop offset="0.68" stop-color="#4C9BD0"/>
<stop offset="0.98" stop-color="#5EA5D5"/>
<stop offset="1" stop-color="#60A6D6"/>
</linearGradient>
<linearGradient id="paint3_linear_1247_10" x1="-0.873524" y1="92.977" x2="52.841" y2="55.4384" gradientUnits="userSpaceOnUse">
<stop stop-color="#051A35"/>
<stop offset="1" stop-color="#1A3250"/>
</linearGradient>
<linearGradient id="paint4_linear_1247_10" x1="46.1567" y1="45.8628" x2="99.8713" y2="8.32419" gradientUnits="userSpaceOnUse">
<stop stop-color="#3E93CD"/>
<stop offset="0.36" stop-color="#4194CD"/>
<stop offset="0.68" stop-color="#4C9BD0"/>
<stop offset="0.98" stop-color="#5EA5D5"/>
<stop offset="1" stop-color="#60A6D6"/>
</linearGradient>
<linearGradient id="paint5_linear_1247_10" x1="41.2737" y1="38.8885" x2="94.9971" y2="1.34108" gradientUnits="userSpaceOnUse">
<stop stop-color="#051A35"/>
<stop offset="1" stop-color="#1A3250"/>
</linearGradient>
<linearGradient id="paint6_linear_1247_10" x1="18.7808" y1="26.8737" x2="35.231" y2="15.3763" gradientUnits="userSpaceOnUse">
<stop stop-color="#3E93CD"/>
<stop offset="0.36" stop-color="#4194CD"/>
<stop offset="0.68" stop-color="#4C9BD0"/>
<stop offset="0.98" stop-color="#5EA5D5"/>
<stop offset="1" stop-color="#60A6D6"/>
</linearGradient>
<linearGradient id="paint7_linear_1247_10" x1="11.8101" y1="31.7653" x2="28.2602" y2="20.268" gradientUnits="userSpaceOnUse">
<stop stop-color="#051A35"/>
<stop offset="1" stop-color="#1A3250"/>
</linearGradient>
</defs>
</svg>
